<svg xmlns="http://www.w3.org/2000/svg" xmlns:xlink="http://www.w3.org/1999/xlink" width="793" zoomAndPan="magnify" viewBox="0 0 594.95996 842.24997" height="1122" preserveAspectRatio="xMidYMid meet" version="1.0"><defs><g/></defs><g fill="#000000" fill-opacity="1"><g transform="translate(44.233561, 386.427136)"><g><path d="M 93.3125 -65.25 C 88.832031 -70.457031 83 -74.523438 75.8125 -77.453125 C 68.625 -80.390625 60.957031 -81.859375 52.8125 -81.859375 C 39.382812 -81.859375 27.941406 -78.265625 18.484375 -71.078125 C 8.722656 -63.671875 3.84375 -54.648438 3.84375 -44.015625 C 3.84375 -33.378906 8.722656 -24.351562 18.484375 -16.9375 C 27.941406 -9.75 39.382812 -6.15625 52.8125 -6.15625 C 60.957031 -6.15625 68.625 -7.625 75.8125 -10.5625 C 83 -13.5 88.832031 -17.570312 93.3125 -22.78125 C 94.625 -24.394531 94.550781 -25.820312 93.09375 -27.0625 C 92.5 -27.582031 91.800781 -27.84375 91 -27.84375 C 90.113281 -27.84375 89.378906 -27.507812 88.796875 -26.84375 C 84.765625 -22.300781 79.570312 -18.726562 73.21875 -16.125 C 66.875 -13.519531 60.070312 -12.21875 52.8125 -12.21875 C 41 -12.21875 30.910156 -15.332031 22.546875 -21.5625 C 14.191406 -27.800781 10.015625 -35.285156 10.015625 -44.015625 C 10.015625 -52.742188 14.191406 -60.222656 22.546875 -66.453125 C 30.910156 -72.691406 41 -75.8125 52.8125 -75.8125 C 60.070312 -75.8125 66.875 -74.507812 73.21875 -71.90625 C 79.570312 -69.300781 84.765625 -65.722656 88.796875 -61.171875 C 89.378906 -60.515625 90.113281 -60.1875 91 -60.1875 C 91.800781 -60.1875 92.5 -60.441406 93.09375 -60.953125 C 94.550781 -62.203125 94.625 -63.632812 93.3125 -65.25 Z M 93.3125 -65.25 "/></g></g></g><g fill="#000000" fill-opacity="1"><g transform="translate(143.69404, 386.427136)"><g><path d="M 4.734375 -33.015625 C 4.734375 -25.453125 9.28125 -19.082031 18.375 -13.90625 C 27.46875 -8.738281 38.617188 -6.15625 51.828125 -6.15625 C 64.953125 -6.15625 75.660156 -7.585938 83.953125 -10.453125 C 93.929688 -13.898438 98.921875 -18.960938 98.921875 -25.640625 C 98.921875 -32.609375 94.664062 -37.632812 86.15625 -40.71875 C 81.3125 -42.476562 71.882812 -44.3125 57.875 -46.21875 L 46.984375 -47.75 C 33.703125 -49.65625 24.898438 -51.34375 20.578125 -52.8125 C 14.117188 -55.007812 10.890625 -58.203125 10.890625 -62.390625 C 10.890625 -66.347656 14.703125 -69.570312 22.328125 -72.0625 C 29.960938 -74.5625 39.796875 -75.8125 51.828125 -75.8125 C 62.898438 -75.8125 72.488281 -73.753906 80.59375 -69.640625 C 88.695312 -65.535156 92.75 -60.660156 92.75 -55.015625 C 92.75 -52.960938 93.78125 -51.9375 95.84375 -51.9375 C 97.894531 -51.9375 98.921875 -52.960938 98.921875 -55.015625 C 98.921875 -62.566406 94.367188 -68.925781 85.265625 -74.09375 C 76.171875 -79.269531 65.023438 -81.859375 51.828125 -81.859375 C 38.691406 -81.859375 27.984375 -80.429688 19.703125 -77.578125 C 9.722656 -74.128906 4.734375 -69.066406 4.734375 -62.390625 C 4.734375 -55.421875 9.171875 -50.359375 18.046875 -47.203125 C 22.296875 -45.734375 31.6875 -43.898438 46.21875 -41.703125 L 51.390625 -40.9375 L 57 -40.15625 C 70.414062 -38.320312 79.328125 -36.632812 83.734375 -35.09375 C 89.742188 -33.039062 92.75 -29.890625 92.75 -25.640625 C 92.75 -21.679688 88.9375 -18.453125 81.3125 -15.953125 C 73.6875 -13.460938 63.859375 -12.21875 51.828125 -12.21875 C 40.742188 -12.21875 31.148438 -14.269531 23.046875 -18.375 C 14.941406 -22.476562 10.890625 -27.359375 10.890625 -33.015625 C 10.890625 -35.066406 9.863281 -36.09375 7.8125 -36.09375 C 5.757812 -36.09375 4.734375 -35.066406 4.734375 -33.015625 Z M 4.734375 -33.015625 "/></g></g></g><g fill="#000000" fill-opacity="1"><g transform="translate(247.005317, 386.427136)"><g><path d="M 97.375 -13.53125 L 72.734375 -29.921875 L 73.609375 -29.921875 C 80.578125 -29.921875 86.5 -32.378906 91.375 -37.296875 C 96.257812 -42.210938 98.703125 -48.117188 98.703125 -55.015625 C 98.703125 -61.984375 96.257812 -67.90625 91.375 -72.78125 C 86.5 -77.664062 80.578125 -80.109375 73.609375 -80.109375 L 4.515625 -80.109375 L 4.515625 -11 C 4.515625 -8.945312 5.539062 -7.921875 7.59375 -7.921875 C 9.644531 -7.921875 10.671875 -8.945312 10.671875 -11 L 10.671875 -29.921875 L 61.734375 -29.921875 L 93.96875 -8.46875 C 94.476562 -8.101562 95.03125 -7.921875 95.625 -7.921875 C 96.71875 -7.921875 97.554688 -8.398438 98.140625 -9.359375 C 98.515625 -9.867188 98.703125 -10.414062 98.703125 -11 C 98.703125 -12.101562 98.257812 -12.945312 97.375 -13.53125 Z M 10.671875 -73.9375 L 73.609375 -73.9375 C 78.816406 -73.9375 83.269531 -72.082031 86.96875 -68.375 C 90.675781 -64.675781 92.53125 -60.222656 92.53125 -55.015625 C 92.53125 -49.804688 90.675781 -45.347656 86.96875 -41.640625 C 83.269531 -37.941406 78.816406 -36.09375 73.609375 -36.09375 L 10.671875 -36.09375 Z M 10.671875 -73.9375 "/></g></g></g><g fill="#000000" fill-opacity="1"><g transform="translate(350.316593, 386.427136)"><g><path d="M 73.609375 -80.109375 L 4.515625 -80.109375 L 4.515625 -11 C 4.515625 -8.945312 5.539062 -7.921875 7.59375 -7.921875 C 9.644531 -7.921875 10.671875 -8.945312 10.671875 -11 L 10.671875 -29.921875 L 73.609375 -29.921875 C 80.578125 -29.921875 86.5 -32.378906 91.375 -37.296875 C 96.257812 -42.210938 98.703125 -48.117188 98.703125 -55.015625 C 98.703125 -61.984375 96.257812 -67.90625 91.375 -72.78125 C 86.5 -77.664062 80.578125 -80.109375 73.609375 -80.109375 Z M 73.609375 -36.09375 L 10.671875 -36.09375 L 10.671875 -73.9375 L 73.609375 -73.9375 C 78.816406 -73.9375 83.269531 -72.082031 86.96875 -68.375 C 90.675781 -64.675781 92.53125 -60.222656 92.53125 -55.015625 C 92.53125 -49.804688 90.675781 -45.347656 86.96875 -41.640625 C 83.269531 -37.941406 78.816406 -36.09375 73.609375 -36.09375 Z M 73.609375 -36.09375 "/></g></g></g><g fill="#000000" fill-opacity="1"><g transform="translate(453.627869, 386.427136)"><g><path d="M 93.3125 -65.25 C 88.832031 -70.457031 83 -74.523438 75.8125 -77.453125 C 68.625 -80.390625 60.957031 -81.859375 52.8125 -81.859375 C 39.382812 -81.859375 27.941406 -78.265625 18.484375 -71.078125 C 8.722656 -63.671875 3.84375 -54.648438 3.84375 -44.015625 C 3.84375 -33.378906 8.722656 -24.351562 18.484375 -16.9375 C 27.941406 -9.75 39.382812 -6.15625 52.8125 -6.15625 C 60.957031 -6.15625 68.625 -7.625 75.8125 -10.5625 C 83 -13.5 88.832031 -17.570312 93.3125 -22.78125 C 94.625 -24.394531 94.550781 -25.820312 93.09375 -27.0625 C 92.5 -27.582031 91.800781 -27.84375 91 -27.84375 C 90.113281 -27.84375 89.378906 -27.507812 88.796875 -26.84375 C 84.765625 -22.300781 79.570312 -18.726562 73.21875 -16.125 C 66.875 -13.519531 60.070312 -12.21875 52.8125 -12.21875 C 41 -12.21875 30.910156 -15.332031 22.546875 -21.5625 C 14.191406 -27.800781 10.015625 -35.285156 10.015625 -44.015625 C 10.015625 -52.742188 14.191406 -60.222656 22.546875 -66.453125 C 30.910156 -72.691406 41 -75.8125 52.8125 -75.8125 C 60.070312 -75.8125 66.875 -74.507812 73.21875 -71.90625 C 79.570312 -69.300781 84.765625 -65.722656 88.796875 -61.171875 C 89.378906 -60.515625 90.113281 -60.1875 91 -60.1875 C 91.800781 -60.1875 92.5 -60.441406 93.09375 -60.953125 C 94.550781 -62.203125 94.625 -63.632812 93.3125 -65.25 Z M 93.3125 -65.25 "/></g></g></g><g fill="#000000" fill-opacity="1"><g transform="translate(45.859651, 275.976041)"><g><path d="M 6.609375 0.28125 C 5.804688 0.28125 5.054688 0.128906 4.359375 -0.171875 C 3.671875 -0.484375 3.066406 -0.910156 2.546875 -1.453125 C 2.023438 -2.003906 1.613281 -2.644531 1.3125 -3.375 C 1.007812 -4.101562 0.859375 -4.882812 0.859375 -5.71875 C 0.859375 -6.550781 1.007812 -7.332031 1.3125 -8.0625 C 1.613281 -8.800781 2.023438 -9.441406 2.546875 -9.984375 C 3.066406 -10.523438 3.671875 -10.953125 4.359375 -11.265625 C 5.054688 -11.578125 5.804688 -11.734375 6.609375 -11.734375 C 7.535156 -11.734375 8.390625 -11.523438 9.171875 -11.109375 C 9.953125 -10.691406 10.601562 -10.125 11.125 -9.40625 L 9.5 -8.140625 C 9.1875 -8.597656 8.785156 -8.957031 8.296875 -9.21875 C 7.804688 -9.488281 7.28125 -9.625 6.71875 -9.625 C 6.25 -9.625 5.796875 -9.523438 5.359375 -9.328125 C 4.929688 -9.128906 4.554688 -8.851562 4.234375 -8.5 C 3.921875 -8.144531 3.671875 -7.726562 3.484375 -7.25 C 3.296875 -6.769531 3.203125 -6.257812 3.203125 -5.71875 C 3.203125 -5.175781 3.296875 -4.664062 3.484375 -4.1875 C 3.671875 -3.707031 3.921875 -3.285156 4.234375 -2.921875 C 4.554688 -2.566406 4.929688 -2.285156 5.359375 -2.078125 C 5.796875 -1.867188 6.25 -1.765625 6.71875 -1.765625 C 7.34375 -1.765625 7.910156 -1.929688 8.421875 -2.265625 C 8.929688 -2.609375 9.347656 -3.054688 9.671875 -3.609375 L 11.25 -2.21875 C 10.738281 -1.457031 10.078125 -0.847656 9.265625 -0.390625 C 8.453125 0.0546875 7.566406 0.28125 6.609375 0.28125 Z M 6.609375 0.28125 "/></g></g></g><g fill="#000000" fill-opacity="1"><g transform="translate(58.018726, 275.976041)"><g><path d="M 6.78125 0.28125 C 5.945312 0.28125 5.164062 0.128906 4.4375 -0.171875 C 3.707031 -0.484375 3.070312 -0.910156 2.53125 -1.453125 C 1.988281 -2.003906 1.5625 -2.644531 1.25 -3.375 C 0.945312 -4.101562 0.796875 -4.882812 0.796875 -5.71875 C 0.796875 -6.550781 0.941406 -7.332031 1.234375 -8.0625 C 1.523438 -8.800781 1.921875 -9.441406 2.421875 -9.984375 C 2.929688 -10.523438 3.519531 -10.953125 4.1875 -11.265625 C 4.851562 -11.578125 5.570312 -11.734375 6.34375 -11.734375 C 7.125 -11.734375 7.84375 -11.597656 8.5 -11.328125 C 9.164062 -11.054688 9.742188 -10.628906 10.234375 -10.046875 C 10.722656 -9.472656 11.101562 -8.742188 11.375 -7.859375 C 11.644531 -6.972656 11.78125 -5.914062 11.78125 -4.6875 L 3.25 -4.6875 C 3.363281 -4.269531 3.539062 -3.878906 3.78125 -3.515625 C 4.019531 -3.160156 4.300781 -2.851562 4.625 -2.59375 C 4.957031 -2.332031 5.328125 -2.128906 5.734375 -1.984375 C 6.140625 -1.835938 6.566406 -1.765625 7.015625 -1.765625 C 7.617188 -1.765625 8.179688 -1.875 8.703125 -2.09375 C 9.222656 -2.320312 9.664062 -2.617188 10.03125 -2.984375 L 11.46875 -1.5625 C 10.90625 -1 10.21875 -0.550781 9.40625 -0.21875 C 8.601562 0.113281 7.726562 0.28125 6.78125 0.28125 Z M 6.34375 -9.625 C 5.976562 -9.625 5.628906 -9.550781 5.296875 -9.40625 C 4.972656 -9.257812 4.671875 -9.054688 4.390625 -8.796875 C 4.109375 -8.546875 3.867188 -8.242188 3.671875 -7.890625 C 3.472656 -7.546875 3.328125 -7.164062 3.234375 -6.75 L 9.28125 -6.75 C 9.25 -7.132812 9.160156 -7.5 9.015625 -7.84375 C 8.878906 -8.195312 8.679688 -8.503906 8.421875 -8.765625 C 8.171875 -9.035156 7.875 -9.242188 7.53125 -9.390625 C 7.1875 -9.546875 6.789062 -9.625 6.34375 -9.625 Z M 6.34375 -9.625 "/></g></g></g><g fill="#000000" fill-opacity="1"><g transform="translate(70.704369, 275.976041)"><g><path d="M 3.609375 0 L 1.296875 0 L 1.296875 -11.46875 L 3.140625 -11.46875 L 3.609375 -10.453125 C 3.992188 -10.828125 4.457031 -11.132812 5 -11.375 C 5.539062 -11.613281 6.132812 -11.734375 6.78125 -11.734375 C 7.1875 -11.734375 7.648438 -11.664062 8.171875 -11.53125 C 8.703125 -11.40625 9.195312 -11.164062 9.65625 -10.8125 C 10.113281 -10.46875 10.5 -9.984375 10.8125 -9.359375 C 11.125 -8.734375 11.28125 -7.925781 11.28125 -6.9375 L 11.28125 0 L 9.078125 0 L 9.078125 -6.96875 C 9.078125 -7.457031 9 -7.875 8.84375 -8.21875 C 8.695312 -8.5625 8.5 -8.835938 8.25 -9.046875 C 8 -9.253906 7.71875 -9.398438 7.40625 -9.484375 C 7.09375 -9.578125 6.769531 -9.625 6.4375 -9.625 C 6.1875 -9.625 5.894531 -9.570312 5.5625 -9.46875 C 5.238281 -9.375 4.929688 -9.21875 4.640625 -9 C 4.359375 -8.789062 4.113281 -8.519531 3.90625 -8.1875 C 3.707031 -7.863281 3.609375 -7.460938 3.609375 -6.984375 Z M 3.609375 0 "/></g></g></g><g fill="#000000" fill-opacity="1"><g transform="translate(83.485748, 275.976041)"><g><path d="M 7.5625 -0.03125 C 6.90625 0.195312 6.257812 0.332031 5.625 0.375 C 4.988281 0.425781 4.414062 0.335938 3.90625 0.109375 C 3.394531 -0.117188 2.976562 -0.523438 2.65625 -1.109375 C 2.332031 -1.691406 2.171875 -2.507812 2.171875 -3.5625 L 2.171875 -9.390625 L 0.5 -9.390625 L 0.5 -10.984375 L 2.171875 -11.46875 L 2.171875 -14.53125 L 4.5 -14.53125 L 4.5 -11.46875 L 7.609375 -11.46875 L 7.609375 -9.390625 L 4.5 -9.390625 L 4.5 -3.203125 C 4.5 -2.828125 4.539062 -2.523438 4.625 -2.296875 C 4.71875 -2.078125 4.867188 -1.910156 5.078125 -1.796875 C 5.285156 -1.679688 5.554688 -1.625 5.890625 -1.625 C 6.222656 -1.625 6.628906 -1.65625 7.109375 -1.71875 Z M 7.5625 -0.03125 "/></g></g></g><g fill="#000000" fill-opacity="1"><g transform="translate(91.671573, 275.976041)"><g><path d="M 6.78125 0.28125 C 5.945312 0.28125 5.164062 0.128906 4.4375 -0.171875 C 3.707031 -0.484375 3.070312 -0.910156 2.53125 -1.453125 C 1.988281 -2.003906 1.5625 -2.644531 1.25 -3.375 C 0.945312 -4.101562 0.796875 -4.882812 0.796875 -5.71875 C 0.796875 -6.550781 0.941406 -7.332031 1.234375 -8.0625 C 1.523438 -8.800781 1.921875 -9.441406 2.421875 -9.984375 C 2.929688 -10.523438 3.519531 -10.953125 4.1875 -11.265625 C 4.851562 -11.578125 5.570312 -11.734375 6.34375 -11.734375 C 7.125 -11.734375 7.84375 -11.597656 8.5 -11.328125 C 9.164062 -11.054688 9.742188 -10.628906 10.234375 -10.046875 C 10.722656 -9.472656 11.101562 -8.742188 11.375 -7.859375 C 11.644531 -6.972656 11.78125 -5.914062 11.78125 -4.6875 L 3.25 -4.6875 C 3.363281 -4.269531 3.539062 -3.878906 3.78125 -3.515625 C 4.019531 -3.160156 4.300781 -2.851562 4.625 -2.59375 C 4.957031 -2.332031 5.328125 -2.128906 5.734375 -1.984375 C 6.140625 -1.835938 6.566406 -1.765625 7.015625 -1.765625 C 7.617188 -1.765625 8.179688 -1.875 8.703125 -2.09375 C 9.222656 -2.320312 9.664062 -2.617188 10.03125 -2.984375 L 11.46875 -1.5625 C 10.90625 -1 10.21875 -0.550781 9.40625 -0.21875 C 8.601562 0.113281 7.726562 0.28125 6.78125 0.28125 Z M 6.34375 -9.625 C 5.976562 -9.625 5.628906 -9.550781 5.296875 -9.40625 C 4.972656 -9.257812 4.671875 -9.054688 4.390625 -8.796875 C 4.109375 -8.546875 3.867188 -8.242188 3.671875 -7.890625 C 3.472656 -7.546875 3.328125 -7.164062 3.234375 -6.75 L 9.28125 -6.75 C 9.25 -7.132812 9.160156 -7.5 9.015625 -7.84375 C 8.878906 -8.195312 8.679688 -8.503906 8.421875 -8.765625 C 8.171875 -9.035156 7.875 -9.242188 7.53125 -9.390625 C 7.1875 -9.546875 6.789062 -9.625 6.34375 -9.625 Z M 6.34375 -9.625 "/></g></g></g><g fill="#000000" fill-opacity="1"><g transform="translate(104.357217, 275.976041)"><g><path d="M 8.265625 -9.328125 C 8.148438 -9.378906 8.035156 -9.429688 7.921875 -9.484375 C 7.828125 -9.515625 7.710938 -9.546875 7.578125 -9.578125 C 7.453125 -9.609375 7.320312 -9.625 7.1875 -9.625 C 6.71875 -9.625 6.285156 -9.546875 5.890625 -9.390625 C 5.492188 -9.242188 5.148438 -9.039062 4.859375 -8.78125 C 4.566406 -8.53125 4.335938 -8.234375 4.171875 -7.890625 C 4.003906 -7.546875 3.921875 -7.179688 3.921875 -6.796875 L 3.90625 0 L 1.578125 0 L 1.578125 -11.46875 L 3.421875 -11.46875 L 3.90625 -10.203125 C 4.21875 -10.660156 4.632812 -11.03125 5.15625 -11.3125 C 5.675781 -11.59375 6.328125 -11.734375 7.109375 -11.734375 C 7.617188 -11.734375 8.203125 -11.660156 8.859375 -11.515625 Z M 8.265625 -9.328125 "/></g></g></g><g fill="#000000" fill-opacity="1"><g transform="translate(113.404709, 275.976041)"><g/></g></g><g fill="#000000" fill-opacity="1"><g transform="translate(119.651795, 275.976041)"><g><path d="M 2.984375 0 L 2.984375 -9.390625 L 1.03125 -9.390625 L 1.03125 -10.984375 L 2.984375 -11.46875 L 2.984375 -12.859375 C 2.984375 -13.671875 3.085938 -14.375 3.296875 -14.96875 C 3.503906 -15.570312 3.785156 -16.0625 4.140625 -16.4375 C 4.503906 -16.820312 4.914062 -17.101562 5.375 -17.28125 C 5.84375 -17.46875 6.34375 -17.5625 6.875 -17.5625 C 7.519531 -17.5625 8.179688 -17.425781 8.859375 -17.15625 L 8.859375 -15.46875 C 8.285156 -15.644531 7.789062 -15.734375 7.375 -15.734375 C 6.71875 -15.734375 6.207031 -15.53125 5.84375 -15.125 C 5.488281 -14.726562 5.3125 -14.09375 5.3125 -13.21875 L 5.3125 -11.46875 L 8.859375 -11.46875 L 8.859375 -9.390625 L 5.3125 -9.390625 L 5.3125 0 Z M 2.984375 0 "/></g></g></g><g fill="#000000" fill-opacity="1"><g transform="translate(128.747167, 275.976041)"><g><path d="M 6.375 0.28125 C 5.570312 0.28125 4.820312 0.128906 4.125 -0.171875 C 3.4375 -0.484375 2.832031 -0.910156 2.3125 -1.453125 C 1.789062 -2.003906 1.378906 -2.644531 1.078125 -3.375 C 0.773438 -4.101562 0.625 -4.882812 0.625 -5.71875 C 0.625 -6.550781 0.773438 -7.332031 1.078125 -8.0625 C 1.378906 -8.800781 1.789062 -9.441406 2.3125 -9.984375 C 2.832031 -10.523438 3.4375 -10.953125 4.125 -11.265625 C 4.820312 -11.578125 5.570312 -11.734375 6.375 -11.734375 C 7.15625 -11.734375 7.894531 -11.578125 8.59375 -11.265625 C 9.289062 -10.953125 9.898438 -10.523438 10.421875 -9.984375 C 10.941406 -9.441406 11.351562 -8.800781 11.65625 -8.0625 C 11.957031 -7.332031 12.109375 -6.550781 12.109375 -5.71875 C 12.109375 -4.882812 11.957031 -4.101562 11.65625 -3.375 C 11.351562 -2.644531 10.941406 -2.003906 10.421875 -1.453125 C 9.898438 -0.910156 9.289062 -0.484375 8.59375 -0.171875 C 7.894531 0.128906 7.15625 0.28125 6.375 0.28125 Z M 6.375 -9.640625 C 5.90625 -9.640625 5.460938 -9.535156 5.046875 -9.328125 C 4.628906 -9.128906 4.265625 -8.851562 3.953125 -8.5 C 3.648438 -8.144531 3.410156 -7.726562 3.234375 -7.25 C 3.054688 -6.769531 2.96875 -6.257812 2.96875 -5.71875 C 2.96875 -5.175781 3.054688 -4.664062 3.234375 -4.1875 C 3.410156 -3.707031 3.648438 -3.285156 3.953125 -2.921875 C 4.265625 -2.566406 4.628906 -2.285156 5.046875 -2.078125 C 5.460938 -1.867188 5.90625 -1.765625 6.375 -1.765625 C 6.832031 -1.765625 7.269531 -1.867188 7.6875 -2.078125 C 8.101562 -2.285156 8.460938 -2.566406 8.765625 -2.921875 C 9.066406 -3.285156 9.304688 -3.707031 9.484375 -4.1875 C 9.660156 -4.664062 9.75 -5.175781 9.75 -5.71875 C 9.75 -6.257812 9.660156 -6.769531 9.484375 -7.25 C 9.304688 -7.726562 9.066406 -8.144531 8.765625 -8.5 C 8.460938 -8.851562 8.101562 -9.128906 7.6875 -9.328125 C 7.269531 -9.535156 6.832031 -9.640625 6.375 -9.640625 Z M 6.375 -9.640625 "/></g></g></g><g fill="#000000" fill-opacity="1"><g transform="translate(141.384943, 275.976041)"><g><path d="M 8.265625 -9.328125 C 8.148438 -9.378906 8.035156 -9.429688 7.921875 -9.484375 C 7.828125 -9.515625 7.710938 -9.546875 7.578125 -9.578125 C 7.453125 -9.609375 7.320312 -9.625 7.1875 -9.625 C 6.71875 -9.625 6.285156 -9.546875 5.890625 -9.390625 C 5.492188 -9.242188 5.148438 -9.039062 4.859375 -8.78125 C 4.566406 -8.53125 4.335938 -8.234375 4.171875 -7.890625 C 4.003906 -7.546875 3.921875 -7.179688 3.921875 -6.796875 L 3.90625 0 L 1.578125 0 L 1.578125 -11.46875 L 3.421875 -11.46875 L 3.90625 -10.203125 C 4.21875 -10.660156 4.632812 -11.03125 5.15625 -11.3125 C 5.675781 -11.59375 6.328125 -11.734375 7.109375 -11.734375 C 7.617188 -11.734375 8.203125 -11.660156 8.859375 -11.515625 Z M 8.265625 -9.328125 "/></g></g></g><g fill="#000000" fill-opacity="1"><g transform="translate(150.432435, 275.976041)"><g/></g></g><g fill="#000000" fill-opacity="1"><g transform="translate(156.679522, 275.976041)"><g><path d="M 7.5625 -0.03125 C 6.90625 0.195312 6.257812 0.332031 5.625 0.375 C 4.988281 0.425781 4.414062 0.335938 3.90625 0.109375 C 3.394531 -0.117188 2.976562 -0.523438 2.65625 -1.109375 C 2.332031 -1.691406 2.171875 -2.507812 2.171875 -3.5625 L 2.171875 -9.390625 L 0.5 -9.390625 L 0.5 -10.984375 L 2.171875 -11.46875 L 2.171875 -14.53125 L 4.5 -14.53125 L 4.5 -11.46875 L 7.609375 -11.46875 L 7.609375 -9.390625 L 4.5 -9.390625 L 4.5 -3.203125 C 4.5 -2.828125 4.539062 -2.523438 4.625 -2.296875 C 4.71875 -2.078125 4.867188 -1.910156 5.078125 -1.796875 C 5.285156 -1.679688 5.554688 -1.625 5.890625 -1.625 C 6.222656 -1.625 6.628906 -1.65625 7.109375 -1.71875 Z M 7.5625 -0.03125 "/></g></g></g><g fill="#000000" fill-opacity="1"><g transform="translate(164.865347, 275.976041)"><g><path d="M 3.65625 0 L 1.34375 0 L 1.34375 -17.46875 L 3.65625 -17.46875 L 3.65625 -10.40625 C 4.09375 -10.882812 4.546875 -11.222656 5.015625 -11.421875 C 5.484375 -11.628906 6.03125 -11.734375 6.65625 -11.734375 C 7.445312 -11.734375 8.160156 -11.578125 8.796875 -11.265625 C 9.429688 -10.953125 9.96875 -10.523438 10.40625 -9.984375 C 10.851562 -9.441406 11.191406 -8.800781 11.421875 -8.0625 C 11.660156 -7.332031 11.78125 -6.550781 11.78125 -5.71875 L 11.78125 0 L 9.4375 0 L 9.4375 -5.71875 C 9.4375 -6.257812 9.359375 -6.769531 9.203125 -7.25 C 9.046875 -7.726562 8.835938 -8.144531 8.578125 -8.5 C 8.316406 -8.851562 8.015625 -9.128906 7.671875 -9.328125 C 7.328125 -9.523438 6.957031 -9.625 6.5625 -9.625 C 6.226562 -9.625 5.890625 -9.554688 5.546875 -9.421875 C 5.210938 -9.285156 4.90625 -9.066406 4.625 -8.765625 C 4.351562 -8.460938 4.125 -8.0625 3.9375 -7.5625 C 3.75 -7.070312 3.65625 -6.472656 3.65625 -5.765625 Z M 3.65625 0 "/></g></g></g><g fill="#000000" fill-opacity="1"><g transform="translate(177.838209, 275.976041)"><g><path d="M 6.78125 0.28125 C 5.945312 0.28125 5.164062 0.128906 4.4375 -0.171875 C 3.707031 -0.484375 3.070312 -0.910156 2.53125 -1.453125 C 1.988281 -2.003906 1.5625 -2.644531 1.25 -3.375 C 0.945312 -4.101562 0.796875 -4.882812 0.796875 -5.71875 C 0.796875 -6.550781 0.941406 -7.332031 1.234375 -8.0625 C 1.523438 -8.800781 1.921875 -9.441406 2.421875 -9.984375 C 2.929688 -10.523438 3.519531 -10.953125 4.1875 -11.265625 C 4.851562 -11.578125 5.570312 -11.734375 6.34375 -11.734375 C 7.125 -11.734375 7.84375 -11.597656 8.5 -11.328125 C 9.164062 -11.054688 9.742188 -10.628906 10.234375 -10.046875 C 10.722656 -9.472656 11.101562 -8.742188 11.375 -7.859375 C 11.644531 -6.972656 11.78125 -5.914062 11.78125 -4.6875 L 3.25 -4.6875 C 3.363281 -4.269531 3.539062 -3.878906 3.78125 -3.515625 C 4.019531 -3.160156 4.300781 -2.851562 4.625 -2.59375 C 4.957031 -2.332031 5.328125 -2.128906 5.734375 -1.984375 C 6.140625 -1.835938 6.566406 -1.765625 7.015625 -1.765625 C 7.617188 -1.765625 8.179688 -1.875 8.703125 -2.09375 C 9.222656 -2.320312 9.664062 -2.617188 10.03125 -2.984375 L 11.46875 -1.5625 C 10.90625 -1 10.21875 -0.550781 9.40625 -0.21875 C 8.601562 0.113281 7.726562 0.28125 6.78125 0.28125 Z M 6.34375 -9.625 C 5.976562 -9.625 5.628906 -9.550781 5.296875 -9.40625 C 4.972656 -9.257812 4.671875 -9.054688 4.390625 -8.796875 C 4.109375 -8.546875 3.867188 -8.242188 3.671875 -7.890625 C 3.472656 -7.546875 3.328125 -7.164062 3.234375 -6.75 L 9.28125 -6.75 C 9.25 -7.132812 9.160156 -7.5 9.015625 -7.84375 C 8.878906 -8.195312 8.679688 -8.503906 8.421875 -8.765625 C 8.171875 -9.035156 7.875 -9.242188 7.53125 -9.390625 C 7.1875 -9.546875 6.789062 -9.625 6.34375 -9.625 Z M 6.34375 -9.625 "/></g></g></g><g fill="#000000" fill-opacity="1"><g transform="translate(190.523853, 275.976041)"><g/></g></g><g fill="#000000" fill-opacity="1"><g transform="translate(196.770939, 275.976041)"><g><path d="M 6.671875 -2.390625 C 6.816406 -2.515625 6.945312 -2.65625 7.0625 -2.8125 C 7.175781 -2.976562 7.234375 -3.164062 7.234375 -3.375 C 7.234375 -3.632812 7.140625 -3.847656 6.953125 -4.015625 C 6.765625 -4.191406 6.539062 -4.335938 6.28125 -4.453125 C 6.019531 -4.578125 5.742188 -4.671875 5.453125 -4.734375 C 5.171875 -4.796875 4.929688 -4.851562 4.734375 -4.90625 C 4.210938 -5.03125 3.71875 -5.1875 3.25 -5.375 C 2.789062 -5.5625 2.390625 -5.785156 2.046875 -6.046875 C 1.703125 -6.304688 1.429688 -6.613281 1.234375 -6.96875 C 1.035156 -7.332031 0.9375 -7.765625 0.9375 -8.265625 C 0.9375 -8.722656 1.046875 -9.15625 1.265625 -9.5625 C 1.492188 -9.96875 1.796875 -10.328125 2.171875 -10.640625 C 2.546875 -10.953125 2.984375 -11.195312 3.484375 -11.375 C 3.984375 -11.5625 4.515625 -11.65625 5.078125 -11.65625 C 5.566406 -11.65625 6.035156 -11.582031 6.484375 -11.4375 C 6.929688 -11.300781 7.332031 -11.109375 7.6875 -10.859375 C 8.050781 -10.609375 8.351562 -10.304688 8.59375 -9.953125 C 8.84375 -9.609375 9.007812 -9.21875 9.09375 -8.78125 L 7.015625 -8.28125 C 6.921875 -8.664062 6.710938 -8.984375 6.390625 -9.234375 C 6.066406 -9.492188 5.628906 -9.625 5.078125 -9.625 C 4.878906 -9.625 4.675781 -9.59375 4.46875 -9.53125 C 4.269531 -9.476562 4.082031 -9.394531 3.90625 -9.28125 C 3.726562 -9.175781 3.578125 -9.039062 3.453125 -8.875 C 3.335938 -8.71875 3.28125 -8.535156 3.28125 -8.328125 C 3.28125 -8.109375 3.347656 -7.914062 3.484375 -7.75 C 3.617188 -7.59375 3.78125 -7.460938 3.96875 -7.359375 C 4.164062 -7.253906 4.375 -7.171875 4.59375 -7.109375 C 4.820312 -7.046875 5.03125 -6.988281 5.21875 -6.9375 C 6.0625 -6.726562 6.757812 -6.503906 7.3125 -6.265625 C 7.875 -6.023438 8.320312 -5.757812 8.65625 -5.46875 C 9 -5.1875 9.238281 -4.875 9.375 -4.53125 C 9.507812 -4.1875 9.578125 -3.800781 9.578125 -3.375 C 9.578125 -2.863281 9.457031 -2.382812 9.21875 -1.9375 C 8.988281 -1.488281 8.671875 -1.097656 8.265625 -0.765625 C 7.859375 -0.441406 7.367188 -0.1875 6.796875 0 C 6.234375 0.175781 5.628906 0.265625 4.984375 0.265625 C 3.992188 0.265625 3.109375 0.0195312 2.328125 -0.46875 C 1.554688 -0.957031 1.035156 -1.609375 0.765625 -2.421875 L 2.734375 -3.296875 C 2.984375 -2.742188 3.304688 -2.363281 3.703125 -2.15625 C 4.109375 -1.957031 4.566406 -1.859375 5.078125 -1.859375 C 5.710938 -1.859375 6.242188 -2.035156 6.671875 -2.390625 Z M 6.671875 -2.390625 "/></g></g></g><g fill="#000000" fill-opacity="1"><g transform="translate(207.063064, 275.976041)"><g><path d="M 7.5625 -0.03125 C 6.90625 0.195312 6.257812 0.332031 5.625 0.375 C 4.988281 0.425781 4.414062 0.335938 3.90625 0.109375 C 3.394531 -0.117188 2.976562 -0.523438 2.65625 -1.109375 C 2.332031 -1.691406 2.171875 -2.507812 2.171875 -3.5625 L 2.171875 -9.390625 L 0.5 -9.390625 L 0.5 -10.984375 L 2.171875 -11.46875 L 2.171875 -14.53125 L 4.5 -14.53125 L 4.5 -11.46875 L 7.609375 -11.46875 L 7.609375 -9.390625 L 4.5 -9.390625 L 4.5 -3.203125 C 4.5 -2.828125 4.539062 -2.523438 4.625 -2.296875 C 4.71875 -2.078125 4.867188 -1.910156 5.078125 -1.796875 C 5.285156 -1.679688 5.554688 -1.625 5.890625 -1.625 C 6.222656 -1.625 6.628906 -1.65625 7.109375 -1.71875 Z M 7.5625 -0.03125 "/></g></g></g><g fill="#000000" fill-opacity="1"><g transform="translate(215.24889, 275.976041)"><g><path d="M 9.09375 -1.03125 C 8.695312 -0.664062 8.226562 -0.363281 7.6875 -0.125 C 7.15625 0.113281 6.5625 0.234375 5.90625 0.234375 C 5.5 0.234375 5.03125 0.171875 4.5 0.046875 C 3.96875 -0.0664062 3.472656 -0.296875 3.015625 -0.640625 C 2.566406 -0.992188 2.1875 -1.476562 1.875 -2.09375 C 1.5625 -2.707031 1.40625 -3.507812 1.40625 -4.5 L 1.40625 -11.46875 L 3.609375 -11.46875 L 3.609375 -4.5 C 3.609375 -4.007812 3.679688 -3.59375 3.828125 -3.25 C 3.984375 -2.90625 4.1875 -2.628906 4.4375 -2.421875 C 4.6875 -2.210938 4.96875 -2.054688 5.28125 -1.953125 C 5.601562 -1.859375 5.929688 -1.8125 6.265625 -1.8125 C 6.523438 -1.8125 6.816406 -1.859375 7.140625 -1.953125 C 7.472656 -2.054688 7.78125 -2.210938 8.0625 -2.421875 C 8.351562 -2.640625 8.597656 -2.914062 8.796875 -3.25 C 8.992188 -3.59375 9.09375 -4 9.09375 -4.46875 L 9.09375 -11.46875 L 11.421875 -11.46875 L 11.421875 0 L 9.578125 0 Z M 9.09375 -1.03125 "/></g></g></g><g fill="#000000" fill-opacity="1"><g transform="translate(228.054215, 275.976041)"><g><path d="M 12.296875 -17.46875 L 12.296875 0 L 10.453125 0 L 9.984375 -1.203125 C 9.515625 -0.734375 8.984375 -0.367188 8.390625 -0.109375 C 7.804688 0.148438 7.132812 0.28125 6.375 0.28125 C 5.570312 0.28125 4.832031 0.128906 4.15625 -0.171875 C 3.488281 -0.484375 2.90625 -0.910156 2.40625 -1.453125 C 1.914062 -2.003906 1.53125 -2.644531 1.25 -3.375 C 0.976562 -4.101562 0.84375 -4.882812 0.84375 -5.71875 C 0.84375 -6.550781 0.976562 -7.332031 1.25 -8.0625 C 1.53125 -8.800781 1.914062 -9.441406 2.40625 -9.984375 C 2.90625 -10.523438 3.488281 -10.953125 4.15625 -11.265625 C 4.832031 -11.578125 5.570312 -11.734375 6.375 -11.734375 C 7.164062 -11.734375 7.851562 -11.597656 8.4375 -11.328125 C 9.03125 -11.066406 9.546875 -10.695312 9.984375 -10.21875 L 9.984375 -17.46875 Z M 6.5625 -1.765625 C 7.039062 -1.765625 7.484375 -1.84375 7.890625 -2 C 8.296875 -2.164062 8.65625 -2.410156 8.96875 -2.734375 C 9.28125 -3.066406 9.519531 -3.476562 9.6875 -3.96875 C 9.863281 -4.46875 9.953125 -5.050781 9.953125 -5.71875 C 9.953125 -6.4375 9.863281 -7.039062 9.6875 -7.53125 C 9.519531 -8.03125 9.28125 -8.4375 8.96875 -8.75 C 8.65625 -9.0625 8.296875 -9.285156 7.890625 -9.421875 C 7.484375 -9.554688 7.039062 -9.625 6.5625 -9.625 C 6.09375 -9.625 5.648438 -9.523438 5.234375 -9.328125 C 4.828125 -9.128906 4.46875 -8.851562 4.15625 -8.5 C 3.851562 -8.144531 3.613281 -7.726562 3.4375 -7.25 C 3.269531 -6.769531 3.1875 -6.257812 3.1875 -5.71875 C 3.1875 -5.175781 3.269531 -4.664062 3.4375 -4.1875 C 3.613281 -3.707031 3.851562 -3.285156 4.15625 -2.921875 C 4.46875 -2.566406 4.828125 -2.285156 5.234375 -2.078125 C 5.648438 -1.867188 6.09375 -1.765625 6.5625 -1.765625 Z M 6.5625 -1.765625 "/></g></g></g><g fill="#000000" fill-opacity="1"><g transform="translate(241.912666, 275.976041)"><g><path d="M 5.09375 -1.296875 L 0.234375 -11.46875 L 2.828125 -11.46875 L 6.375 -4.015625 L 9.84375 -11.46875 L 12.40625 -11.46875 L 5 4.578125 L 2.4375 4.578125 Z M 5.09375 -1.296875 "/></g></g></g><g fill="#000000" fill-opacity="1"><g transform="translate(254.717991, 275.976041)"><g/></g></g><g fill="#000000" fill-opacity="1"><g transform="translate(260.965077, 275.976041)"><g><path d="M 6.375 0.28125 C 5.570312 0.28125 4.820312 0.128906 4.125 -0.171875 C 3.4375 -0.484375 2.832031 -0.910156 2.3125 -1.453125 C 1.789062 -2.003906 1.378906 -2.644531 1.078125 -3.375 C 0.773438 -4.101562 0.625 -4.882812 0.625 -5.71875 C 0.625 -6.550781 0.773438 -7.332031 1.078125 -8.0625 C 1.378906 -8.800781 1.789062 -9.441406 2.3125 -9.984375 C 2.832031 -10.523438 3.4375 -10.953125 4.125 -11.265625 C 4.820312 -11.578125 5.570312 -11.734375 6.375 -11.734375 C 7.15625 -11.734375 7.894531 -11.578125 8.59375 -11.265625 C 9.289062 -10.953125 9.898438 -10.523438 10.421875 -9.984375 C 10.941406 -9.441406 11.351562 -8.800781 11.65625 -8.0625 C 11.957031 -7.332031 12.109375 -6.550781 12.109375 -5.71875 C 12.109375 -4.882812 11.957031 -4.101562 11.65625 -3.375 C 11.351562 -2.644531 10.941406 -2.003906 10.421875 -1.453125 C 9.898438 -0.910156 9.289062 -0.484375 8.59375 -0.171875 C 7.894531 0.128906 7.15625 0.28125 6.375 0.28125 Z M 6.375 -9.640625 C 5.90625 -9.640625 5.460938 -9.535156 5.046875 -9.328125 C 4.628906 -9.128906 4.265625 -8.851562 3.953125 -8.5 C 3.648438 -8.144531 3.410156 -7.726562 3.234375 -7.25 C 3.054688 -6.769531 2.96875 -6.257812 2.96875 -5.71875 C 2.96875 -5.175781 3.054688 -4.664062 3.234375 -4.1875 C 3.410156 -3.707031 3.648438 -3.285156 3.953125 -2.921875 C 4.265625 -2.566406 4.628906 -2.285156 5.046875 -2.078125 C 5.460938 -1.867188 5.90625 -1.765625 6.375 -1.765625 C 6.832031 -1.765625 7.269531 -1.867188 7.6875 -2.078125 C 8.101562 -2.285156 8.460938 -2.566406 8.765625 -2.921875 C 9.066406 -3.285156 9.304688 -3.707031 9.484375 -4.1875 C 9.660156 -4.664062 9.75 -5.175781 9.75 -5.71875 C 9.75 -6.257812 9.660156 -6.769531 9.484375 -7.25 C 9.304688 -7.726562 9.066406 -8.144531 8.765625 -8.5 C 8.460938 -8.851562 8.101562 -9.128906 7.6875 -9.328125 C 7.269531 -9.535156 6.832031 -9.640625 6.375 -9.640625 Z M 6.375 -9.640625 "/></g></g></g><g fill="#000000" fill-opacity="1"><g transform="translate(273.602853, 275.976041)"><g><path d="M 2.984375 0 L 2.984375 -9.390625 L 1.03125 -9.390625 L 1.03125 -10.984375 L 2.984375 -11.46875 L 2.984375 -12.859375 C 2.984375 -13.671875 3.085938 -14.375 3.296875 -14.96875 C 3.503906 -15.570312 3.785156 -16.0625 4.140625 -16.4375 C 4.503906 -16.820312 4.914062 -17.101562 5.375 -17.28125 C 5.84375 -17.46875 6.34375 -17.5625 6.875 -17.5625 C 7.519531 -17.5625 8.179688 -17.425781 8.859375 -17.15625 L 8.859375 -15.46875 C 8.285156 -15.644531 7.789062 -15.734375 7.375 -15.734375 C 6.71875 -15.734375 6.207031 -15.53125 5.84375 -15.125 C 5.488281 -14.726562 5.3125 -14.09375 5.3125 -13.21875 L 5.3125 -11.46875 L 8.859375 -11.46875 L 8.859375 -9.390625 L 5.3125 -9.390625 L 5.3125 0 Z M 2.984375 0 "/></g></g></g><g fill="#000000" fill-opacity="1"><g transform="translate(282.698224, 275.976041)"><g/></g></g><g fill="#000000" fill-opacity="1"><g transform="translate(288.94531, 275.976041)"><g><path d="M 8.265625 -9.328125 C 8.148438 -9.378906 8.035156 -9.429688 7.921875 -9.484375 C 7.828125 -9.515625 7.710938 -9.546875 7.578125 -9.578125 C 7.453125 -9.609375 7.320312 -9.625 7.1875 -9.625 C 6.71875 -9.625 6.285156 -9.546875 5.890625 -9.390625 C 5.492188 -9.242188 5.148438 -9.039062 4.859375 -8.78125 C 4.566406 -8.53125 4.335938 -8.234375 4.171875 -7.890625 C 4.003906 -7.546875 3.921875 -7.179688 3.921875 -6.796875 L 3.90625 0 L 1.578125 0 L 1.578125 -11.46875 L 3.421875 -11.46875 L 3.90625 -10.203125 C 4.21875 -10.660156 4.632812 -11.03125 5.15625 -11.3125 C 5.675781 -11.59375 6.328125 -11.734375 7.109375 -11.734375 C 7.617188 -11.734375 8.203125 -11.660156 8.859375 -11.515625 Z M 8.265625 -9.328125 "/></g></g></g><g fill="#000000" fill-opacity="1"><g transform="translate(297.992814, 275.976041)"><g><path d="M 12.203125 -11.46875 L 12.203125 0 L 10.25 0 L 9.890625 -1.3125 C 9.484375 -0.789062 8.96875 -0.394531 8.34375 -0.125 C 7.726562 0.144531 7.101562 0.28125 6.46875 0.28125 C 5.664062 0.28125 4.914062 0.128906 4.21875 -0.171875 C 3.53125 -0.484375 2.925781 -0.910156 2.40625 -1.453125 C 1.882812 -2.003906 1.472656 -2.644531 1.171875 -3.375 C 0.867188 -4.101562 0.71875 -4.882812 0.71875 -5.71875 C 0.71875 -6.550781 0.867188 -7.332031 1.171875 -8.0625 C 1.472656 -8.800781 1.882812 -9.441406 2.40625 -9.984375 C 2.925781 -10.523438 3.53125 -10.953125 4.21875 -11.265625 C 4.914062 -11.578125 5.664062 -11.734375 6.46875 -11.734375 C 7.101562 -11.734375 7.710938 -11.609375 8.296875 -11.359375 C 8.890625 -11.109375 9.421875 -10.722656 9.890625 -10.203125 L 10.25 -11.46875 Z M 6.46875 -1.765625 C 6.925781 -1.765625 7.363281 -1.867188 7.78125 -2.078125 C 8.195312 -2.285156 8.554688 -2.566406 8.859375 -2.921875 C 9.160156 -3.285156 9.398438 -3.707031 9.578125 -4.1875 C 9.753906 -4.664062 9.84375 -5.175781 9.84375 -5.71875 C 9.84375 -6.257812 9.753906 -6.769531 9.578125 -7.25 C 9.398438 -7.726562 9.160156 -8.144531 8.859375 -8.5 C 8.554688 -8.863281 8.195312 -9.148438 7.78125 -9.359375 C 7.363281 -9.566406 6.925781 -9.671875 6.46875 -9.671875 C 6 -9.671875 5.554688 -9.566406 5.140625 -9.359375 C 4.734375 -9.148438 4.375 -8.863281 4.0625 -8.5 C 3.757812 -8.144531 3.519531 -7.726562 3.34375 -7.25 C 3.175781 -6.769531 3.09375 -6.257812 3.09375 -5.71875 C 3.09375 -5.175781 3.175781 -4.664062 3.34375 -4.1875 C 3.519531 -3.707031 3.757812 -3.285156 4.0625 -2.921875 C 4.375 -2.566406 4.734375 -2.285156 5.140625 -2.078125 C 5.554688 -1.867188 6 -1.765625 6.46875 -1.765625 Z M 6.46875 -1.765625 "/></g></g></g><g fill="#000000" fill-opacity="1"><g transform="translate(311.228973, 275.976041)"><g><path d="M 6.609375 0.28125 C 5.804688 0.28125 5.054688 0.128906 4.359375 -0.171875 C 3.671875 -0.484375 3.066406 -0.910156 2.546875 -1.453125 C 2.023438 -2.003906 1.613281 -2.644531 1.3125 -3.375 C 1.007812 -4.101562 0.859375 -4.882812 0.859375 -5.71875 C 0.859375 -6.550781 1.007812 -7.332031 1.3125 -8.0625 C 1.613281 -8.800781 2.023438 -9.441406 2.546875 -9.984375 C 3.066406 -10.523438 3.671875 -10.953125 4.359375 -11.265625 C 5.054688 -11.578125 5.804688 -11.734375 6.609375 -11.734375 C 7.535156 -11.734375 8.390625 -11.523438 9.171875 -11.109375 C 9.953125 -10.691406 10.601562 -10.125 11.125 -9.40625 L 9.5 -8.140625 C 9.1875 -8.597656 8.785156 -8.957031 8.296875 -9.21875 C 7.804688 -9.488281 7.28125 -9.625 6.71875 -9.625 C 6.25 -9.625 5.796875 -9.523438 5.359375 -9.328125 C 4.929688 -9.128906 4.554688 -8.851562 4.234375 -8.5 C 3.921875 -8.144531 3.671875 -7.726562 3.484375 -7.25 C 3.296875 -6.769531 3.203125 -6.257812 3.203125 -5.71875 C 3.203125 -5.175781 3.296875 -4.664062 3.484375 -4.1875 C 3.671875 -3.707031 3.921875 -3.285156 4.234375 -2.921875 C 4.554688 -2.566406 4.929688 -2.285156 5.359375 -2.078125 C 5.796875 -1.867188 6.25 -1.765625 6.71875 -1.765625 C 7.34375 -1.765625 7.910156 -1.929688 8.421875 -2.265625 C 8.929688 -2.609375 9.347656 -3.054688 9.671875 -3.609375 L 11.25 -2.21875 C 10.738281 -1.457031 10.078125 -0.847656 9.265625 -0.390625 C 8.453125 0.0546875 7.566406 0.28125 6.609375 0.28125 Z M 6.609375 0.28125 "/></g></g></g><g fill="#000000" fill-opacity="1"><g transform="translate(323.388047, 275.976041)"><g><path d="M 6.78125 0.28125 C 5.945312 0.28125 5.164062 0.128906 4.4375 -0.171875 C 3.707031 -0.484375 3.070312 -0.910156 2.53125 -1.453125 C 1.988281 -2.003906 1.5625 -2.644531 1.25 -3.375 C 0.945312 -4.101562 0.796875 -4.882812 0.796875 -5.71875 C 0.796875 -6.550781 0.941406 -7.332031 1.234375 -8.0625 C 1.523438 -8.800781 1.921875 -9.441406 2.421875 -9.984375 C 2.929688 -10.523438 3.519531 -10.953125 4.1875 -11.265625 C 4.851562 -11.578125 5.570312 -11.734375 6.34375 -11.734375 C 7.125 -11.734375 7.84375 -11.597656 8.5 -11.328125 C 9.164062 -11.054688 9.742188 -10.628906 10.234375 -10.046875 C 10.722656 -9.472656 11.101562 -8.742188 11.375 -7.859375 C 11.644531 -6.972656 11.78125 -5.914062 11.78125 -4.6875 L 3.25 -4.6875 C 3.363281 -4.269531 3.539062 -3.878906 3.78125 -3.515625 C 4.019531 -3.160156 4.300781 -2.851562 4.625 -2.59375 C 4.957031 -2.332031 5.328125 -2.128906 5.734375 -1.984375 C 6.140625 -1.835938 6.566406 -1.765625 7.015625 -1.765625 C 7.617188 -1.765625 8.179688 -1.875 8.703125 -2.09375 C 9.222656 -2.320312 9.664062 -2.617188 10.03125 -2.984375 L 11.46875 -1.5625 C 10.90625 -1 10.21875 -0.550781 9.40625 -0.21875 C 8.601562 0.113281 7.726562 0.28125 6.78125 0.28125 Z M 6.34375 -9.625 C 5.976562 -9.625 5.628906 -9.550781 5.296875 -9.40625 C 4.972656 -9.257812 4.671875 -9.054688 4.390625 -8.796875 C 4.109375 -8.546875 3.867188 -8.242188 3.671875 -7.890625 C 3.472656 -7.546875 3.328125 -7.164062 3.234375 -6.75 L 9.28125 -6.75 C 9.25 -7.132812 9.160156 -7.5 9.015625 -7.84375 C 8.878906 -8.195312 8.679688 -8.503906 8.421875 -8.765625 C 8.171875 -9.035156 7.875 -9.242188 7.53125 -9.390625 C 7.1875 -9.546875 6.789062 -9.625 6.34375 -9.625 Z M 6.34375 -9.625 "/></g></g></g><g fill="#000000" fill-opacity="1"><g transform="translate(336.07369, 275.976041)"><g><path d="M 2.96875 3.0625 L 1.03125 3.0625 L 1.8125 -2.828125 L 4.53125 -2.828125 Z M 2.96875 3.0625 "/></g></g></g><g fill="#000000" fill-opacity="1"><g transform="translate(343.062762, 275.976041)"><g/></g></g><g fill="#000000" fill-opacity="1"><g transform="translate(349.309848, 275.976041)"><g><path d="M 1.34375 4.734375 L 1.34375 -11.46875 L 3.1875 -11.46875 L 3.65625 -10.265625 C 4.125 -10.734375 4.65625 -11.09375 5.25 -11.34375 C 5.851562 -11.601562 6.53125 -11.734375 7.28125 -11.734375 C 8.070312 -11.734375 8.804688 -11.578125 9.484375 -11.265625 C 10.171875 -10.953125 10.757812 -10.523438 11.25 -9.984375 C 11.75 -9.441406 12.132812 -8.800781 12.40625 -8.0625 C 12.6875 -7.332031 12.828125 -6.550781 12.828125 -5.71875 C 12.828125 -4.882812 12.6875 -4.101562 12.40625 -3.375 C 12.132812 -2.644531 11.75 -2.003906 11.25 -1.453125 C 10.757812 -0.910156 10.171875 -0.484375 9.484375 -0.171875 C 8.804688 0.128906 8.070312 0.28125 7.28125 0.28125 C 6.5 0.28125 5.8125 0.148438 5.21875 -0.109375 C 4.625 -0.367188 4.101562 -0.75 3.65625 -1.25 L 3.65625 4.734375 Z M 7.078125 -9.625 C 6.617188 -9.625 6.179688 -9.546875 5.765625 -9.390625 C 5.347656 -9.242188 4.984375 -9.003906 4.671875 -8.671875 C 4.367188 -8.347656 4.128906 -7.941406 3.953125 -7.453125 C 3.773438 -6.960938 3.6875 -6.382812 3.6875 -5.71875 C 3.6875 -5 3.773438 -4.390625 3.953125 -3.890625 C 4.128906 -3.390625 4.367188 -2.984375 4.671875 -2.671875 C 4.984375 -2.359375 5.347656 -2.128906 5.765625 -1.984375 C 6.179688 -1.835938 6.617188 -1.765625 7.078125 -1.765625 C 7.546875 -1.765625 7.988281 -1.867188 8.40625 -2.078125 C 8.820312 -2.285156 9.179688 -2.566406 9.484375 -2.921875 C 9.785156 -3.285156 10.019531 -3.707031 10.1875 -4.1875 C 10.363281 -4.664062 10.453125 -5.175781 10.453125 -5.71875 C 10.453125 -6.257812 10.363281 -6.769531 10.1875 -7.25 C 10.019531 -7.726562 9.785156 -8.144531 9.484375 -8.5 C 9.179688 -8.851562 8.820312 -9.128906 8.40625 -9.328125 C 7.988281 -9.523438 7.546875 -9.625 7.078125 -9.625 Z M 7.078125 -9.625 "/></g></g></g><g fill="#000000" fill-opacity="1"><g transform="translate(362.809291, 275.976041)"><g><path d="M 6.375 0.28125 C 5.570312 0.28125 4.820312 0.128906 4.125 -0.171875 C 3.4375 -0.484375 2.832031 -0.910156 2.3125 -1.453125 C 1.789062 -2.003906 1.378906 -2.644531 1.078125 -3.375 C 0.773438 -4.101562 0.625 -4.882812 0.625 -5.71875 C 0.625 -6.550781 0.773438 -7.332031 1.078125 -8.0625 C 1.378906 -8.800781 1.789062 -9.441406 2.3125 -9.984375 C 2.832031 -10.523438 3.4375 -10.953125 4.125 -11.265625 C 4.820312 -11.578125 5.570312 -11.734375 6.375 -11.734375 C 7.15625 -11.734375 7.894531 -11.578125 8.59375 -11.265625 C 9.289062 -10.953125 9.898438 -10.523438 10.421875 -9.984375 C 10.941406 -9.441406 11.351562 -8.800781 11.65625 -8.0625 C 11.957031 -7.332031 12.109375 -6.550781 12.109375 -5.71875 C 12.109375 -4.882812 11.957031 -4.101562 11.65625 -3.375 C 11.351562 -2.644531 10.941406 -2.003906 10.421875 -1.453125 C 9.898438 -0.910156 9.289062 -0.484375 8.59375 -0.171875 C 7.894531 0.128906 7.15625 0.28125 6.375 0.28125 Z M 6.375 -9.640625 C 5.90625 -9.640625 5.460938 -9.535156 5.046875 -9.328125 C 4.628906 -9.128906 4.265625 -8.851562 3.953125 -8.5 C 3.648438 -8.144531 3.410156 -7.726562 3.234375 -7.25 C 3.054688 -6.769531 2.96875 -6.257812 2.96875 -5.71875 C 2.96875 -5.175781 3.054688 -4.664062 3.234375 -4.1875 C 3.410156 -3.707031 3.648438 -3.285156 3.953125 -2.921875 C 4.265625 -2.566406 4.628906 -2.285156 5.046875 -2.078125 C 5.460938 -1.867188 5.90625 -1.765625 6.375 -1.765625 C 6.832031 -1.765625 7.269531 -1.867188 7.6875 -2.078125 C 8.101562 -2.285156 8.460938 -2.566406 8.765625 -2.921875 C 9.066406 -3.285156 9.304688 -3.707031 9.484375 -4.1875 C 9.660156 -4.664062 9.75 -5.175781 9.75 -5.71875 C 9.75 -6.257812 9.660156 -6.769531 9.484375 -7.25 C 9.304688 -7.726562 9.066406 -8.144531 8.765625 -8.5 C 8.460938 -8.851562 8.101562 -9.128906 7.6875 -9.328125 C 7.269531 -9.535156 6.832031 -9.640625 6.375 -9.640625 Z M 6.375 -9.640625 "/></g></g></g><g fill="#000000" fill-opacity="1"><g transform="translate(375.447067, 275.976041)"><g><path d="M 3.78125 -17.46875 L 3.78125 0 L 1.453125 0 L 1.453125 -17.46875 Z M 3.78125 -17.46875 "/></g></g></g><g fill="#000000" fill-opacity="1"><g transform="translate(380.521333, 275.976041)"><g><path d="M 3.765625 0 L 1.4375 0 L 1.4375 -11.46875 L 3.734375 -11.46875 Z M 2.578125 -13.953125 C 2.171875 -13.953125 1.820312 -14.097656 1.53125 -14.390625 C 1.238281 -14.691406 1.09375 -15.050781 1.09375 -15.46875 C 1.09375 -15.882812 1.238281 -16.234375 1.53125 -16.515625 C 1.820312 -16.804688 2.171875 -16.953125 2.578125 -16.953125 C 2.992188 -16.953125 3.34375 -16.804688 3.625 -16.515625 C 3.914062 -16.234375 4.0625 -15.882812 4.0625 -15.46875 C 4.0625 -15.050781 3.914062 -14.691406 3.625 -14.390625 C 3.34375 -14.097656 2.992188 -13.953125 2.578125 -13.953125 Z M 2.578125 -13.953125 "/></g></g></g><g fill="#000000" fill-opacity="1"><g transform="translate(385.547709, 275.976041)"><g><path d="M 7.5625 -0.03125 C 6.90625 0.195312 6.257812 0.332031 5.625 0.375 C 4.988281 0.425781 4.414062 0.335938 3.90625 0.109375 C 3.394531 -0.117188 2.976562 -0.523438 2.65625 -1.109375 C 2.332031 -1.691406 2.171875 -2.507812 2.171875 -3.5625 L 2.171875 -9.390625 L 0.5 -9.390625 L 0.5 -10.984375 L 2.171875 -11.46875 L 2.171875 -14.53125 L 4.5 -14.53125 L 4.5 -11.46875 L 7.609375 -11.46875 L 7.609375 -9.390625 L 4.5 -9.390625 L 4.5 -3.203125 C 4.5 -2.828125 4.539062 -2.523438 4.625 -2.296875 C 4.71875 -2.078125 4.867188 -1.910156 5.078125 -1.796875 C 5.285156 -1.679688 5.554688 -1.625 5.890625 -1.625 C 6.222656 -1.625 6.628906 -1.65625 7.109375 -1.71875 Z M 7.5625 -0.03125 "/></g></g></g><g fill="#000000" fill-opacity="1"><g transform="translate(393.733546, 275.976041)"><g><path d="M 3.765625 0 L 1.4375 0 L 1.4375 -11.46875 L 3.734375 -11.46875 Z M 2.578125 -13.953125 C 2.171875 -13.953125 1.820312 -14.097656 1.53125 -14.390625 C 1.238281 -14.691406 1.09375 -15.050781 1.09375 -15.46875 C 1.09375 -15.882812 1.238281 -16.234375 1.53125 -16.515625 C 1.820312 -16.804688 2.171875 -16.953125 2.578125 -16.953125 C 2.992188 -16.953125 3.34375 -16.804688 3.625 -16.515625 C 3.914062 -16.234375 4.0625 -15.882812 4.0625 -15.46875 C 4.0625 -15.050781 3.914062 -14.691406 3.625 -14.390625 C 3.34375 -14.097656 2.992188 -13.953125 2.578125 -13.953125 Z M 2.578125 -13.953125 "/></g></g></g><g fill="#000000" fill-opacity="1"><g transform="translate(398.759922, 275.976041)"><g><path d="M 6.609375 0.28125 C 5.804688 0.28125 5.054688 0.128906 4.359375 -0.171875 C 3.671875 -0.484375 3.066406 -0.910156 2.546875 -1.453125 C 2.023438 -2.003906 1.613281 -2.644531 1.3125 -3.375 C 1.007812 -4.101562 0.859375 -4.882812 0.859375 -5.71875 C 0.859375 -6.550781 1.007812 -7.332031 1.3125 -8.0625 C 1.613281 -8.800781 2.023438 -9.441406 2.546875 -9.984375 C 3.066406 -10.523438 3.671875 -10.953125 4.359375 -11.265625 C 5.054688 -11.578125 5.804688 -11.734375 6.609375 -11.734375 C 7.535156 -11.734375 8.390625 -11.523438 9.171875 -11.109375 C 9.953125 -10.691406 10.601562 -10.125 11.125 -9.40625 L 9.5 -8.140625 C 9.1875 -8.597656 8.785156 -8.957031 8.296875 -9.21875 C 7.804688 -9.488281 7.28125 -9.625 6.71875 -9.625 C 6.25 -9.625 5.796875 -9.523438 5.359375 -9.328125 C 4.929688 -9.128906 4.554688 -8.851562 4.234375 -8.5 C 3.921875 -8.144531 3.671875 -7.726562 3.484375 -7.25 C 3.296875 -6.769531 3.203125 -6.257812 3.203125 -5.71875 C 3.203125 -5.175781 3.296875 -4.664062 3.484375 -4.1875 C 3.671875 -3.707031 3.921875 -3.285156 4.234375 -2.921875 C 4.554688 -2.566406 4.929688 -2.285156 5.359375 -2.078125 C 5.796875 -1.867188 6.25 -1.765625 6.71875 -1.765625 C 7.34375 -1.765625 7.910156 -1.929688 8.421875 -2.265625 C 8.929688 -2.609375 9.347656 -3.054688 9.671875 -3.609375 L 11.25 -2.21875 C 10.738281 -1.457031 10.078125 -0.847656 9.265625 -0.390625 C 8.453125 0.0546875 7.566406 0.28125 6.609375 0.28125 Z M 6.609375 0.28125 "/></g></g></g><g fill="#000000" fill-opacity="1"><g transform="translate(410.918996, 275.976041)"><g><path d="M 6.671875 -2.390625 C 6.816406 -2.515625 6.945312 -2.65625 7.0625 -2.8125 C 7.175781 -2.976562 7.234375 -3.164062 7.234375 -3.375 C 7.234375 -3.632812 7.140625 -3.847656 6.953125 -4.015625 C 6.765625 -4.191406 6.539062 -4.335938 6.28125 -4.453125 C 6.019531 -4.578125 5.742188 -4.671875 5.453125 -4.734375 C 5.171875 -4.796875 4.929688 -4.851562 4.734375 -4.90625 C 4.210938 -5.03125 3.71875 -5.1875 3.25 -5.375 C 2.789062 -5.5625 2.390625 -5.785156 2.046875 -6.046875 C 1.703125 -6.304688 1.429688 -6.613281 1.234375 -6.96875 C 1.035156 -7.332031 0.9375 -7.765625 0.9375 -8.265625 C 0.9375 -8.722656 1.046875 -9.15625 1.265625 -9.5625 C 1.492188 -9.96875 1.796875 -10.328125 2.171875 -10.640625 C 2.546875 -10.953125 2.984375 -11.195312 3.484375 -11.375 C 3.984375 -11.5625 4.515625 -11.65625 5.078125 -11.65625 C 5.566406 -11.65625 6.035156 -11.582031 6.484375 -11.4375 C 6.929688 -11.300781 7.332031 -11.109375 7.6875 -10.859375 C 8.050781 -10.609375 8.351562 -10.304688 8.59375 -9.953125 C 8.84375 -9.609375 9.007812 -9.21875 9.09375 -8.78125 L 7.015625 -8.28125 C 6.921875 -8.664062 6.710938 -8.984375 6.390625 -9.234375 C 6.066406 -9.492188 5.628906 -9.625 5.078125 -9.625 C 4.878906 -9.625 4.675781 -9.59375 4.46875 -9.53125 C 4.269531 -9.476562 4.082031 -9.394531 3.90625 -9.28125 C 3.726562 -9.175781 3.578125 -9.039062 3.453125 -8.875 C 3.335938 -8.71875 3.28125 -8.535156 3.28125 -8.328125 C 3.28125 -8.109375 3.347656 -7.914062 3.484375 -7.75 C 3.617188 -7.59375 3.78125 -7.460938 3.96875 -7.359375 C 4.164062 -7.253906 4.375 -7.171875 4.59375 -7.109375 C 4.820312 -7.046875 5.03125 -6.988281 5.21875 -6.9375 C 6.0625 -6.726562 6.757812 -6.503906 7.3125 -6.265625 C 7.875 -6.023438 8.320312 -5.757812 8.65625 -5.46875 C 9 -5.1875 9.238281 -4.875 9.375 -4.53125 C 9.507812 -4.1875 9.578125 -3.800781 9.578125 -3.375 C 9.578125 -2.863281 9.457031 -2.382812 9.21875 -1.9375 C 8.988281 -1.488281 8.671875 -1.097656 8.265625 -0.765625 C 7.859375 -0.441406 7.367188 -0.1875 6.796875 0 C 6.234375 0.175781 5.628906 0.265625 4.984375 0.265625 C 3.992188 0.265625 3.109375 0.0195312 2.328125 -0.46875 C 1.554688 -0.957031 1.035156 -1.609375 0.765625 -2.421875 L 2.734375 -3.296875 C 2.984375 -2.742188 3.304688 -2.363281 3.703125 -2.15625 C 4.109375 -1.957031 4.566406 -1.859375 5.078125 -1.859375 C 5.710938 -1.859375 6.242188 -2.035156 6.671875 -2.390625 Z M 6.671875 -2.390625 "/></g></g></g><g fill="#000000" fill-opacity="1"><g transform="translate(421.21111, 275.976041)"><g><path d="M 2.96875 3.0625 L 1.03125 3.0625 L 1.8125 -2.828125 L 4.53125 -2.828125 Z M 2.96875 3.0625 "/></g></g></g><g fill="#000000" fill-opacity="1"><g transform="translate(428.200182, 275.976041)"><g/></g></g><g fill="#000000" fill-opacity="1"><g transform="translate(434.447268, 275.976041)"><g><path d="M 12.203125 -11.46875 L 12.203125 0 L 10.25 0 L 9.890625 -1.3125 C 9.484375 -0.789062 8.96875 -0.394531 8.34375 -0.125 C 7.726562 0.144531 7.101562 0.28125 6.46875 0.28125 C 5.664062 0.28125 4.914062 0.128906 4.21875 -0.171875 C 3.53125 -0.484375 2.925781 -0.910156 2.40625 -1.453125 C 1.882812 -2.003906 1.472656 -2.644531 1.171875 -3.375 C 0.867188 -4.101562 0.71875 -4.882812 0.71875 -5.71875 C 0.71875 -6.550781 0.867188 -7.332031 1.171875 -8.0625 C 1.472656 -8.800781 1.882812 -9.441406 2.40625 -9.984375 C 2.925781 -10.523438 3.53125 -10.953125 4.21875 -11.265625 C 4.914062 -11.578125 5.664062 -11.734375 6.46875 -11.734375 C 7.101562 -11.734375 7.710938 -11.609375 8.296875 -11.359375 C 8.890625 -11.109375 9.421875 -10.722656 9.890625 -10.203125 L 10.25 -11.46875 Z M 6.46875 -1.765625 C 6.925781 -1.765625 7.363281 -1.867188 7.78125 -2.078125 C 8.195312 -2.285156 8.554688 -2.566406 8.859375 -2.921875 C 9.160156 -3.285156 9.398438 -3.707031 9.578125 -4.1875 C 9.753906 -4.664062 9.84375 -5.175781 9.84375 -5.71875 C 9.84375 -6.257812 9.753906 -6.769531 9.578125 -7.25 C 9.398438 -7.726562 9.160156 -8.144531 8.859375 -8.5 C 8.554688 -8.863281 8.195312 -9.148438 7.78125 -9.359375 C 7.363281 -9.566406 6.925781 -9.671875 6.46875 -9.671875 C 6 -9.671875 5.554688 -9.566406 5.140625 -9.359375 C 4.734375 -9.148438 4.375 -8.863281 4.0625 -8.5 C 3.757812 -8.144531 3.519531 -7.726562 3.34375 -7.25 C 3.175781 -6.769531 3.09375 -6.257812 3.09375 -5.71875 C 3.09375 -5.175781 3.175781 -4.664062 3.34375 -4.1875 C 3.519531 -3.707031 3.757812 -3.285156 4.0625 -2.921875 C 4.375 -2.566406 4.734375 -2.285156 5.140625 -2.078125 C 5.554688 -1.867188 6 -1.765625 6.46875 -1.765625 Z M 6.46875 -1.765625 "/></g></g></g><g fill="#000000" fill-opacity="1"><g transform="translate(447.683426, 275.976041)"><g><path d="M 3.609375 0 L 1.296875 0 L 1.296875 -11.46875 L 3.140625 -11.46875 L 3.609375 -10.453125 C 3.992188 -10.828125 4.457031 -11.132812 5 -11.375 C 5.539062 -11.613281 6.132812 -11.734375 6.78125 -11.734375 C 7.1875 -11.734375 7.648438 -11.664062 8.171875 -11.53125 C 8.703125 -11.40625 9.195312 -11.164062 9.65625 -10.8125 C 10.113281 -10.46875 10.5 -9.984375 10.8125 -9.359375 C 11.125 -8.734375 11.28125 -7.925781 11.28125 -6.9375 L 11.28125 0 L 9.078125 0 L 9.078125 -6.96875 C 9.078125 -7.457031 9 -7.875 8.84375 -8.21875 C 8.695312 -8.5625 8.5 -8.835938 8.25 -9.046875 C 8 -9.253906 7.71875 -9.398438 7.40625 -9.484375 C 7.09375 -9.578125 6.769531 -9.625 6.4375 -9.625 C 6.1875 -9.625 5.894531 -9.570312 5.5625 -9.46875 C 5.238281 -9.375 4.929688 -9.21875 4.640625 -9 C 4.359375 -8.789062 4.113281 -8.519531 3.90625 -8.1875 C 3.707031 -7.863281 3.609375 -7.460938 3.609375 -6.984375 Z M 3.609375 0 "/></g></g></g><g fill="#000000" fill-opacity="1"><g transform="translate(460.464805, 275.976041)"><g><path d="M 12.296875 -17.46875 L 12.296875 0 L 10.453125 0 L 9.984375 -1.203125 C 9.515625 -0.734375 8.984375 -0.367188 8.390625 -0.109375 C 7.804688 0.148438 7.132812 0.28125 6.375 0.28125 C 5.570312 0.28125 4.832031 0.128906 4.15625 -0.171875 C 3.488281 -0.484375 2.90625 -0.910156 2.40625 -1.453125 C 1.914062 -2.003906 1.53125 -2.644531 1.25 -3.375 C 0.976562 -4.101562 0.84375 -4.882812 0.84375 -5.71875 C 0.84375 -6.550781 0.976562 -7.332031 1.25 -8.0625 C 1.53125 -8.800781 1.914062 -9.441406 2.40625 -9.984375 C 2.90625 -10.523438 3.488281 -10.953125 4.15625 -11.265625 C 4.832031 -11.578125 5.570312 -11.734375 6.375 -11.734375 C 7.164062 -11.734375 7.851562 -11.597656 8.4375 -11.328125 C 9.03125 -11.066406 9.546875 -10.695312 9.984375 -10.21875 L 9.984375 -17.46875 Z M 6.5625 -1.765625 C 7.039062 -1.765625 7.484375 -1.84375 7.890625 -2 C 8.296875 -2.164062 8.65625 -2.410156 8.96875 -2.734375 C 9.28125 -3.066406 9.519531 -3.476562 9.6875 -3.96875 C 9.863281 -4.46875 9.953125 -5.050781 9.953125 -5.71875 C 9.953125 -6.4375 9.863281 -7.039062 9.6875 -7.53125 C 9.519531 -8.03125 9.28125 -8.4375 8.96875 -8.75 C 8.65625 -9.0625 8.296875 -9.285156 7.890625 -9.421875 C 7.484375 -9.554688 7.039062 -9.625 6.5625 -9.625 C 6.09375 -9.625 5.648438 -9.523438 5.234375 -9.328125 C 4.828125 -9.128906 4.46875 -8.851562 4.15625 -8.5 C 3.851562 -8.144531 3.613281 -7.726562 3.4375 -7.25 C 3.269531 -6.769531 3.1875 -6.257812 3.1875 -5.71875 C 3.1875 -5.175781 3.269531 -4.664062 3.4375 -4.1875 C 3.613281 -3.707031 3.851562 -3.285156 4.15625 -2.921875 C 4.46875 -2.566406 4.828125 -2.285156 5.234375 -2.078125 C 5.648438 -1.867188 6.09375 -1.765625 6.5625 -1.765625 Z M 6.5625 -1.765625 "/></g></g></g><g fill="#000000" fill-opacity="1"><g transform="translate(474.323269, 275.976041)"><g/></g></g><g fill="#000000" fill-opacity="1"><g transform="translate(480.570355, 275.976041)"><g><path d="M 6.609375 0.28125 C 5.804688 0.28125 5.054688 0.128906 4.359375 -0.171875 C 3.671875 -0.484375 3.066406 -0.910156 2.546875 -1.453125 C 2.023438 -2.003906 1.613281 -2.644531 1.3125 -3.375 C 1.007812 -4.101562 0.859375 -4.882812 0.859375 -5.71875 C 0.859375 -6.550781 1.007812 -7.332031 1.3125 -8.0625 C 1.613281 -8.800781 2.023438 -9.441406 2.546875 -9.984375 C 3.066406 -10.523438 3.671875 -10.953125 4.359375 -11.265625 C 5.054688 -11.578125 5.804688 -11.734375 6.609375 -11.734375 C 7.535156 -11.734375 8.390625 -11.523438 9.171875 -11.109375 C 9.953125 -10.691406 10.601562 -10.125 11.125 -9.40625 L 9.5 -8.140625 C 9.1875 -8.597656 8.785156 -8.957031 8.296875 -9.21875 C 7.804688 -9.488281 7.28125 -9.625 6.71875 -9.625 C 6.25 -9.625 5.796875 -9.523438 5.359375 -9.328125 C 4.929688 -9.128906 4.554688 -8.851562 4.234375 -8.5 C 3.921875 -8.144531 3.671875 -7.726562 3.484375 -7.25 C 3.296875 -6.769531 3.203125 -6.257812 3.203125 -5.71875 C 3.203125 -5.175781 3.296875 -4.664062 3.484375 -4.1875 C 3.671875 -3.707031 3.921875 -3.285156 4.234375 -2.921875 C 4.554688 -2.566406 4.929688 -2.285156 5.359375 -2.078125 C 5.796875 -1.867188 6.25 -1.765625 6.71875 -1.765625 C 7.34375 -1.765625 7.910156 -1.929688 8.421875 -2.265625 C 8.929688 -2.609375 9.347656 -3.054688 9.671875 -3.609375 L 11.25 -2.21875 C 10.738281 -1.457031 10.078125 -0.847656 9.265625 -0.390625 C 8.453125 0.0546875 7.566406 0.28125 6.609375 0.28125 Z M 6.609375 0.28125 "/></g></g></g><g fill="#000000" fill-opacity="1"><g transform="translate(492.729429, 275.976041)"><g><path d="M 9.09375 -1.03125 C 8.695312 -0.664062 8.226562 -0.363281 7.6875 -0.125 C 7.15625 0.113281 6.5625 0.234375 5.90625 0.234375 C 5.5 0.234375 5.03125 0.171875 4.5 0.046875 C 3.96875 -0.0664062 3.472656 -0.296875 3.015625 -0.640625 C 2.566406 -0.992188 2.1875 -1.476562 1.875 -2.09375 C 1.5625 -2.707031 1.40625 -3.507812 1.40625 -4.5 L 1.40625 -11.46875 L 3.609375 -11.46875 L 3.609375 -4.5 C 3.609375 -4.007812 3.679688 -3.59375 3.828125 -3.25 C 3.984375 -2.90625 4.1875 -2.628906 4.4375 -2.421875 C 4.6875 -2.210938 4.96875 -2.054688 5.28125 -1.953125 C 5.601562 -1.859375 5.929688 -1.8125 6.265625 -1.8125 C 6.523438 -1.8125 6.816406 -1.859375 7.140625 -1.953125 C 7.472656 -2.054688 7.78125 -2.210938 8.0625 -2.421875 C 8.351562 -2.640625 8.597656 -2.914062 8.796875 -3.25 C 8.992188 -3.59375 9.09375 -4 9.09375 -4.46875 L 9.09375 -11.46875 L 11.421875 -11.46875 L 11.421875 0 L 9.578125 0 Z M 9.09375 -1.03125 "/></g></g></g><g fill="#000000" fill-opacity="1"><g transform="translate(505.534754, 275.976041)"><g><path d="M 3.78125 -17.46875 L 3.78125 0 L 1.453125 0 L 1.453125 -17.46875 Z M 3.78125 -17.46875 "/></g></g></g><g fill="#000000" fill-opacity="1"><g transform="translate(510.609021, 275.976041)"><g><path d="M 7.5625 -0.03125 C 6.90625 0.195312 6.257812 0.332031 5.625 0.375 C 4.988281 0.425781 4.414062 0.335938 3.90625 0.109375 C 3.394531 -0.117188 2.976562 -0.523438 2.65625 -1.109375 C 2.332031 -1.691406 2.171875 -2.507812 2.171875 -3.5625 L 2.171875 -9.390625 L 0.5 -9.390625 L 0.5 -10.984375 L 2.171875 -11.46875 L 2.171875 -14.53125 L 4.5 -14.53125 L 4.5 -11.46875 L 7.609375 -11.46875 L 7.609375 -9.390625 L 4.5 -9.390625 L 4.5 -3.203125 C 4.5 -2.828125 4.539062 -2.523438 4.625 -2.296875 C 4.71875 -2.078125 4.867188 -1.910156 5.078125 -1.796875 C 5.285156 -1.679688 5.554688 -1.625 5.890625 -1.625 C 6.222656 -1.625 6.628906 -1.65625 7.109375 -1.71875 Z M 7.5625 -0.03125 "/></g></g></g><g fill="#000000" fill-opacity="1"><g transform="translate(518.794858, 275.976041)"><g><path d="M 9.09375 -1.03125 C 8.695312 -0.664062 8.226562 -0.363281 7.6875 -0.125 C 7.15625 0.113281 6.5625 0.234375 5.90625 0.234375 C 5.5 0.234375 5.03125 0.171875 4.5 0.046875 C 3.96875 -0.0664062 3.472656 -0.296875 3.015625 -0.640625 C 2.566406 -0.992188 2.1875 -1.476562 1.875 -2.09375 C 1.5625 -2.707031 1.40625 -3.507812 1.40625 -4.5 L 1.40625 -11.46875 L 3.609375 -11.46875 L 3.609375 -4.5 C 3.609375 -4.007812 3.679688 -3.59375 3.828125 -3.25 C 3.984375 -2.90625 4.1875 -2.628906 4.4375 -2.421875 C 4.6875 -2.210938 4.96875 -2.054688 5.28125 -1.953125 C 5.601562 -1.859375 5.929688 -1.8125 6.265625 -1.8125 C 6.523438 -1.8125 6.816406 -1.859375 7.140625 -1.953125 C 7.472656 -2.054688 7.78125 -2.210938 8.0625 -2.421875 C 8.351562 -2.640625 8.597656 -2.914062 8.796875 -3.25 C 8.992188 -3.59375 9.09375 -4 9.09375 -4.46875 L 9.09375 -11.46875 L 11.421875 -11.46875 L 11.421875 0 L 9.578125 0 Z M 9.09375 -1.03125 "/></g></g></g><g fill="#000000" fill-opacity="1"><g transform="translate(531.600183, 275.976041)"><g><path d="M 8.265625 -9.328125 C 8.148438 -9.378906 8.035156 -9.429688 7.921875 -9.484375 C 7.828125 -9.515625 7.710938 -9.546875 7.578125 -9.578125 C 7.453125 -9.609375 7.320312 -9.625 7.1875 -9.625 C 6.71875 -9.625 6.285156 -9.546875 5.890625 -9.390625 C 5.492188 -9.242188 5.148438 -9.039062 4.859375 -8.78125 C 4.566406 -8.53125 4.335938 -8.234375 4.171875 -7.890625 C 4.003906 -7.546875 3.921875 -7.179688 3.921875 -6.796875 L 3.90625 0 L 1.578125 0 L 1.578125 -11.46875 L 3.421875 -11.46875 L 3.90625 -10.203125 C 4.21875 -10.660156 4.632812 -11.03125 5.15625 -11.3125 C 5.675781 -11.59375 6.328125 -11.734375 7.109375 -11.734375 C 7.617188 -11.734375 8.203125 -11.660156 8.859375 -11.515625 Z M 8.265625 -9.328125 "/></g></g></g><g fill="#000000" fill-opacity="1"><g transform="translate(540.647687, 275.976041)"><g><path d="M 6.78125 0.28125 C 5.945312 0.28125 5.164062 0.128906 4.4375 -0.171875 C 3.707031 -0.484375 3.070312 -0.910156 2.53125 -1.453125 C 1.988281 -2.003906 1.5625 -2.644531 1.25 -3.375 C 0.945312 -4.101562 0.796875 -4.882812 0.796875 -5.71875 C 0.796875 -6.550781 0.941406 -7.332031 1.234375 -8.0625 C 1.523438 -8.800781 1.921875 -9.441406 2.421875 -9.984375 C 2.929688 -10.523438 3.519531 -10.953125 4.1875 -11.265625 C 4.851562 -11.578125 5.570312 -11.734375 6.34375 -11.734375 C 7.125 -11.734375 7.84375 -11.597656 8.5 -11.328125 C 9.164062 -11.054688 9.742188 -10.628906 10.234375 -10.046875 C 10.722656 -9.472656 11.101562 -8.742188 11.375 -7.859375 C 11.644531 -6.972656 11.78125 -5.914062 11.78125 -4.6875 L 3.25 -4.6875 C 3.363281 -4.269531 3.539062 -3.878906 3.78125 -3.515625 C 4.019531 -3.160156 4.300781 -2.851562 4.625 -2.59375 C 4.957031 -2.332031 5.328125 -2.128906 5.734375 -1.984375 C 6.140625 -1.835938 6.566406 -1.765625 7.015625 -1.765625 C 7.617188 -1.765625 8.179688 -1.875 8.703125 -2.09375 C 9.222656 -2.320312 9.664062 -2.617188 10.03125 -2.984375 L 11.46875 -1.5625 C 10.90625 -1 10.21875 -0.550781 9.40625 -0.21875 C 8.601562 0.113281 7.726562 0.28125 6.78125 0.28125 Z M 6.34375 -9.625 C 5.976562 -9.625 5.628906 -9.550781 5.296875 -9.40625 C 4.972656 -9.257812 4.671875 -9.054688 4.390625 -8.796875 C 4.109375 -8.546875 3.867188 -8.242188 3.671875 -7.890625 C 3.472656 -7.546875 3.328125 -7.164062 3.234375 -6.75 L 9.28125 -6.75 C 9.25 -7.132812 9.160156 -7.5 9.015625 -7.84375 C 8.878906 -8.195312 8.679688 -8.503906 8.421875 -8.765625 C 8.171875 -9.035156 7.875 -9.242188 7.53125 -9.390625 C 7.1875 -9.546875 6.789062 -9.625 6.34375 -9.625 Z M 6.34375 -9.625 "/></g></g></g><g fill="#000000" fill-opacity="1"><g transform="translate(49.132518, 420.187252)"><g><path d="M 12.203125 -11.46875 L 12.203125 0 L 10.25 0 L 9.890625 -1.3125 C 9.484375 -0.789062 8.96875 -0.394531 8.34375 -0.125 C 7.726562 0.144531 7.101562 0.28125 6.46875 0.28125 C 5.664062 0.28125 4.914062 0.128906 4.21875 -0.171875 C 3.53125 -0.484375 2.925781 -0.910156 2.40625 -1.453125 C 1.882812 -2.003906 1.472656 -2.644531 1.171875 -3.375 C 0.867188 -4.101562 0.71875 -4.882812 0.71875 -5.71875 C 0.71875 -6.550781 0.867188 -7.332031 1.171875 -8.0625 C 1.472656 -8.800781 1.882812 -9.441406 2.40625 -9.984375 C 2.925781 -10.523438 3.53125 -10.953125 4.21875 -11.265625 C 4.914062 -11.578125 5.664062 -11.734375 6.46875 -11.734375 C 7.101562 -11.734375 7.710938 -11.609375 8.296875 -11.359375 C 8.890625 -11.109375 9.421875 -10.722656 9.890625 -10.203125 L 10.25 -11.46875 Z M 6.46875 -1.765625 C 6.925781 -1.765625 7.363281 -1.867188 7.78125 -2.078125 C 8.195312 -2.285156 8.554688 -2.566406 8.859375 -2.921875 C 9.160156 -3.285156 9.398438 -3.707031 9.578125 -4.1875 C 9.753906 -4.664062 9.84375 -5.175781 9.84375 -5.71875 C 9.84375 -6.257812 9.753906 -6.769531 9.578125 -7.25 C 9.398438 -7.726562 9.160156 -8.144531 8.859375 -8.5 C 8.554688 -8.863281 8.195312 -9.148438 7.78125 -9.359375 C 7.363281 -9.566406 6.925781 -9.671875 6.46875 -9.671875 C 6 -9.671875 5.554688 -9.566406 5.140625 -9.359375 C 4.734375 -9.148438 4.375 -8.863281 4.0625 -8.5 C 3.757812 -8.144531 3.519531 -7.726562 3.34375 -7.25 C 3.175781 -6.769531 3.09375 -6.257812 3.09375 -5.71875 C 3.09375 -5.175781 3.175781 -4.664062 3.34375 -4.1875 C 3.519531 -3.707031 3.757812 -3.285156 4.0625 -2.921875 C 4.375 -2.566406 4.734375 -2.285156 5.140625 -2.078125 C 5.554688 -1.867188 6 -1.765625 6.46875 -1.765625 Z M 6.46875 -1.765625 "/></g></g></g><g fill="#000000" fill-opacity="1"><g transform="translate(69.960428, 420.187252)"><g><path d="M 7.5625 -0.03125 C 6.90625 0.195312 6.257812 0.332031 5.625 0.375 C 4.988281 0.425781 4.414062 0.335938 3.90625 0.109375 C 3.394531 -0.117188 2.976562 -0.523438 2.65625 -1.109375 C 2.332031 -1.691406 2.171875 -2.507812 2.171875 -3.5625 L 2.171875 -9.390625 L 0.5 -9.390625 L 0.5 -10.984375 L 2.171875 -11.46875 L 2.171875 -14.53125 L 4.5 -14.53125 L 4.5 -11.46875 L 7.609375 -11.46875 L 7.609375 -9.390625 L 4.5 -9.390625 L 4.5 -3.203125 C 4.5 -2.828125 4.539062 -2.523438 4.625 -2.296875 C 4.71875 -2.078125 4.867188 -1.910156 5.078125 -1.796875 C 5.285156 -1.679688 5.554688 -1.625 5.890625 -1.625 C 6.222656 -1.625 6.628906 -1.65625 7.109375 -1.71875 Z M 7.5625 -0.03125 "/></g></g></g><g fill="#000000" fill-opacity="1"><g transform="translate(85.738016, 420.187252)"><g/></g></g><g fill="#000000" fill-opacity="1"><g transform="translate(99.576867, 420.187252)"><g><path d="M 7.5625 -0.03125 C 6.90625 0.195312 6.257812 0.332031 5.625 0.375 C 4.988281 0.425781 4.414062 0.335938 3.90625 0.109375 C 3.394531 -0.117188 2.976562 -0.523438 2.65625 -1.109375 C 2.332031 -1.691406 2.171875 -2.507812 2.171875 -3.5625 L 2.171875 -9.390625 L 0.5 -9.390625 L 0.5 -10.984375 L 2.171875 -11.46875 L 2.171875 -14.53125 L 4.5 -14.53125 L 4.5 -11.46875 L 7.609375 -11.46875 L 7.609375 -9.390625 L 4.5 -9.390625 L 4.5 -3.203125 C 4.5 -2.828125 4.539062 -2.523438 4.625 -2.296875 C 4.71875 -2.078125 4.867188 -1.910156 5.078125 -1.796875 C 5.285156 -1.679688 5.554688 -1.625 5.890625 -1.625 C 6.222656 -1.625 6.628906 -1.65625 7.109375 -1.71875 Z M 7.5625 -0.03125 "/></g></g></g><g fill="#000000" fill-opacity="1"><g transform="translate(115.354454, 420.187252)"><g><path d="M 3.65625 0 L 1.34375 0 L 1.34375 -17.46875 L 3.65625 -17.46875 L 3.65625 -10.40625 C 4.09375 -10.882812 4.546875 -11.222656 5.015625 -11.421875 C 5.484375 -11.628906 6.03125 -11.734375 6.65625 -11.734375 C 7.445312 -11.734375 8.160156 -11.578125 8.796875 -11.265625 C 9.429688 -10.953125 9.96875 -10.523438 10.40625 -9.984375 C 10.851562 -9.441406 11.191406 -8.800781 11.421875 -8.0625 C 11.660156 -7.332031 11.78125 -6.550781 11.78125 -5.71875 L 11.78125 0 L 9.4375 0 L 9.4375 -5.71875 C 9.4375 -6.257812 9.359375 -6.769531 9.203125 -7.25 C 9.046875 -7.726562 8.835938 -8.144531 8.578125 -8.5 C 8.316406 -8.851562 8.015625 -9.128906 7.671875 -9.328125 C 7.328125 -9.523438 6.957031 -9.625 6.5625 -9.625 C 6.226562 -9.625 5.890625 -9.554688 5.546875 -9.421875 C 5.210938 -9.285156 4.90625 -9.066406 4.625 -8.765625 C 4.351562 -8.460938 4.125 -8.0625 3.9375 -7.5625 C 3.75 -7.070312 3.65625 -6.472656 3.65625 -5.765625 Z M 3.65625 0 "/></g></g></g><g fill="#000000" fill-opacity="1"><g transform="translate(135.919077, 420.187252)"><g><path d="M 6.78125 0.28125 C 5.945312 0.28125 5.164062 0.128906 4.4375 -0.171875 C 3.707031 -0.484375 3.070312 -0.910156 2.53125 -1.453125 C 1.988281 -2.003906 1.5625 -2.644531 1.25 -3.375 C 0.945312 -4.101562 0.796875 -4.882812 0.796875 -5.71875 C 0.796875 -6.550781 0.941406 -7.332031 1.234375 -8.0625 C 1.523438 -8.800781 1.921875 -9.441406 2.421875 -9.984375 C 2.929688 -10.523438 3.519531 -10.953125 4.1875 -11.265625 C 4.851562 -11.578125 5.570312 -11.734375 6.34375 -11.734375 C 7.125 -11.734375 7.84375 -11.597656 8.5 -11.328125 C 9.164062 -11.054688 9.742188 -10.628906 10.234375 -10.046875 C 10.722656 -9.472656 11.101562 -8.742188 11.375 -7.859375 C 11.644531 -6.972656 11.78125 -5.914062 11.78125 -4.6875 L 3.25 -4.6875 C 3.363281 -4.269531 3.539062 -3.878906 3.78125 -3.515625 C 4.019531 -3.160156 4.300781 -2.851562 4.625 -2.59375 C 4.957031 -2.332031 5.328125 -2.128906 5.734375 -1.984375 C 6.140625 -1.835938 6.566406 -1.765625 7.015625 -1.765625 C 7.617188 -1.765625 8.179688 -1.875 8.703125 -2.09375 C 9.222656 -2.320312 9.664062 -2.617188 10.03125 -2.984375 L 11.46875 -1.5625 C 10.90625 -1 10.21875 -0.550781 9.40625 -0.21875 C 8.601562 0.113281 7.726562 0.28125 6.78125 0.28125 Z M 6.34375 -9.625 C 5.976562 -9.625 5.628906 -9.550781 5.296875 -9.40625 C 4.972656 -9.257812 4.671875 -9.054688 4.390625 -8.796875 C 4.109375 -8.546875 3.867188 -8.242188 3.671875 -7.890625 C 3.472656 -7.546875 3.328125 -7.164062 3.234375 -6.75 L 9.28125 -6.75 C 9.25 -7.132812 9.160156 -7.5 9.015625 -7.84375 C 8.878906 -8.195312 8.679688 -8.503906 8.421875 -8.765625 C 8.171875 -9.035156 7.875 -9.242188 7.53125 -9.390625 C 7.1875 -9.546875 6.789062 -9.625 6.34375 -9.625 Z M 6.34375 -9.625 "/></g></g></g><g fill="#000000" fill-opacity="1"><g transform="translate(156.196488, 420.187252)"><g/></g></g><g fill="#000000" fill-opacity="1"><g transform="translate(170.035335, 420.187252)"><g><path d="M 13.8125 -6.015625 C 13.8125 -5.148438 13.644531 -4.335938 13.3125 -3.578125 C 12.988281 -2.816406 12.546875 -2.148438 11.984375 -1.578125 C 11.429688 -1.015625 10.78125 -0.570312 10.03125 -0.25 C 9.28125 0.0703125 8.472656 0.234375 7.609375 0.234375 C 6.742188 0.234375 5.9375 0.0703125 5.1875 -0.25 C 4.4375 -0.570312 3.78125 -1.015625 3.21875 -1.578125 C 2.664062 -2.148438 2.222656 -2.816406 1.890625 -3.578125 C 1.566406 -4.335938 1.40625 -5.148438 1.40625 -6.015625 L 1.40625 -16.96875 L 3.90625 -16.96875 L 3.90625 -6.015625 C 3.90625 -5.503906 4 -5.015625 4.1875 -4.546875 C 4.375 -4.085938 4.632812 -3.675781 4.96875 -3.3125 C 5.3125 -2.957031 5.707031 -2.675781 6.15625 -2.46875 C 6.613281 -2.257812 7.097656 -2.15625 7.609375 -2.15625 C 8.117188 -2.15625 8.597656 -2.257812 9.046875 -2.46875 C 9.492188 -2.675781 9.882812 -2.957031 10.21875 -3.3125 C 10.550781 -3.675781 10.8125 -4.085938 11 -4.546875 C 11.195312 -5.015625 11.296875 -5.503906 11.296875 -6.015625 L 11.296875 -16.96875 L 13.8125 -16.96875 Z M 13.8125 -6.015625 "/></g></g></g><g fill="#000000" fill-opacity="1"><g transform="translate(192.801995, 420.187252)"><g><path d="M 3.609375 0 L 1.296875 0 L 1.296875 -11.46875 L 3.140625 -11.46875 L 3.609375 -10.453125 C 3.992188 -10.828125 4.457031 -11.132812 5 -11.375 C 5.539062 -11.613281 6.132812 -11.734375 6.78125 -11.734375 C 7.1875 -11.734375 7.648438 -11.664062 8.171875 -11.53125 C 8.703125 -11.40625 9.195312 -11.164062 9.65625 -10.8125 C 10.113281 -10.46875 10.5 -9.984375 10.8125 -9.359375 C 11.125 -8.734375 11.28125 -7.925781 11.28125 -6.9375 L 11.28125 0 L 9.078125 0 L 9.078125 -6.96875 C 9.078125 -7.457031 9 -7.875 8.84375 -8.21875 C 8.695312 -8.5625 8.5 -8.835938 8.25 -9.046875 C 8 -9.253906 7.71875 -9.398438 7.40625 -9.484375 C 7.09375 -9.578125 6.769531 -9.625 6.4375 -9.625 C 6.1875 -9.625 5.894531 -9.570312 5.5625 -9.46875 C 5.238281 -9.375 4.929688 -9.21875 4.640625 -9 C 4.359375 -8.789062 4.113281 -8.519531 3.90625 -8.1875 C 3.707031 -7.863281 3.609375 -7.460938 3.609375 -6.984375 Z M 3.609375 0 "/></g></g></g><g fill="#000000" fill-opacity="1"><g transform="translate(213.175135, 420.187252)"><g><path d="M 3.765625 0 L 1.4375 0 L 1.4375 -11.46875 L 3.734375 -11.46875 Z M 2.578125 -13.953125 C 2.171875 -13.953125 1.820312 -14.097656 1.53125 -14.390625 C 1.238281 -14.691406 1.09375 -15.050781 1.09375 -15.46875 C 1.09375 -15.882812 1.238281 -16.234375 1.53125 -16.515625 C 1.820312 -16.804688 2.171875 -16.953125 2.578125 -16.953125 C 2.992188 -16.953125 3.34375 -16.804688 3.625 -16.515625 C 3.914062 -16.234375 4.0625 -15.882812 4.0625 -15.46875 C 4.0625 -15.050781 3.914062 -14.691406 3.625 -14.390625 C 3.34375 -14.097656 2.992188 -13.953125 2.578125 -13.953125 Z M 2.578125 -13.953125 "/></g></g></g><g fill="#000000" fill-opacity="1"><g transform="translate(225.793284, 420.187252)"><g><path d="M 8.109375 0 L 5.03125 0 L 0.28125 -11.46875 L 2.796875 -11.46875 L 6.578125 -2.34375 L 10.359375 -11.46875 L 12.875 -11.46875 Z M 8.109375 0 "/></g></g></g><g fill="#000000" fill-opacity="1"><g transform="translate(246.597258, 420.187252)"><g><path d="M 6.78125 0.28125 C 5.945312 0.28125 5.164062 0.128906 4.4375 -0.171875 C 3.707031 -0.484375 3.070312 -0.910156 2.53125 -1.453125 C 1.988281 -2.003906 1.5625 -2.644531 1.25 -3.375 C 0.945312 -4.101562 0.796875 -4.882812 0.796875 -5.71875 C 0.796875 -6.550781 0.941406 -7.332031 1.234375 -8.0625 C 1.523438 -8.800781 1.921875 -9.441406 2.421875 -9.984375 C 2.929688 -10.523438 3.519531 -10.953125 4.1875 -11.265625 C 4.851562 -11.578125 5.570312 -11.734375 6.34375 -11.734375 C 7.125 -11.734375 7.84375 -11.597656 8.5 -11.328125 C 9.164062 -11.054688 9.742188 -10.628906 10.234375 -10.046875 C 10.722656 -9.472656 11.101562 -8.742188 11.375 -7.859375 C 11.644531 -6.972656 11.78125 -5.914062 11.78125 -4.6875 L 3.25 -4.6875 C 3.363281 -4.269531 3.539062 -3.878906 3.78125 -3.515625 C 4.019531 -3.160156 4.300781 -2.851562 4.625 -2.59375 C 4.957031 -2.332031 5.328125 -2.128906 5.734375 -1.984375 C 6.140625 -1.835938 6.566406 -1.765625 7.015625 -1.765625 C 7.617188 -1.765625 8.179688 -1.875 8.703125 -2.09375 C 9.222656 -2.320312 9.664062 -2.617188 10.03125 -2.984375 L 11.46875 -1.5625 C 10.90625 -1 10.21875 -0.550781 9.40625 -0.21875 C 8.601562 0.113281 7.726562 0.28125 6.78125 0.28125 Z M 6.34375 -9.625 C 5.976562 -9.625 5.628906 -9.550781 5.296875 -9.40625 C 4.972656 -9.257812 4.671875 -9.054688 4.390625 -8.796875 C 4.109375 -8.546875 3.867188 -8.242188 3.671875 -7.890625 C 3.472656 -7.546875 3.328125 -7.164062 3.234375 -6.75 L 9.28125 -6.75 C 9.25 -7.132812 9.160156 -7.5 9.015625 -7.84375 C 8.878906 -8.195312 8.679688 -8.503906 8.421875 -8.765625 C 8.171875 -9.035156 7.875 -9.242188 7.53125 -9.390625 C 7.1875 -9.546875 6.789062 -9.625 6.34375 -9.625 Z M 6.34375 -9.625 "/></g></g></g><g fill="#000000" fill-opacity="1"><g transform="translate(266.874675, 420.187252)"><g><path d="M 8.265625 -9.328125 C 8.148438 -9.378906 8.035156 -9.429688 7.921875 -9.484375 C 7.828125 -9.515625 7.710938 -9.546875 7.578125 -9.578125 C 7.453125 -9.609375 7.320312 -9.625 7.1875 -9.625 C 6.71875 -9.625 6.285156 -9.546875 5.890625 -9.390625 C 5.492188 -9.242188 5.148438 -9.039062 4.859375 -8.78125 C 4.566406 -8.53125 4.335938 -8.234375 4.171875 -7.890625 C 4.003906 -7.546875 3.921875 -7.179688 3.921875 -6.796875 L 3.90625 0 L 1.578125 0 L 1.578125 -11.46875 L 3.421875 -11.46875 L 3.90625 -10.203125 C 4.21875 -10.660156 4.632812 -11.03125 5.15625 -11.3125 C 5.675781 -11.59375 6.328125 -11.734375 7.109375 -11.734375 C 7.617188 -11.734375 8.203125 -11.660156 8.859375 -11.515625 Z M 8.265625 -9.328125 "/></g></g></g><g fill="#000000" fill-opacity="1"><g transform="translate(283.513929, 420.187252)"><g><path d="M 6.671875 -2.390625 C 6.816406 -2.515625 6.945312 -2.65625 7.0625 -2.8125 C 7.175781 -2.976562 7.234375 -3.164062 7.234375 -3.375 C 7.234375 -3.632812 7.140625 -3.847656 6.953125 -4.015625 C 6.765625 -4.191406 6.539062 -4.335938 6.28125 -4.453125 C 6.019531 -4.578125 5.742188 -4.671875 5.453125 -4.734375 C 5.171875 -4.796875 4.929688 -4.851562 4.734375 -4.90625 C 4.210938 -5.03125 3.71875 -5.1875 3.25 -5.375 C 2.789062 -5.5625 2.390625 -5.785156 2.046875 -6.046875 C 1.703125 -6.304688 1.429688 -6.613281 1.234375 -6.96875 C 1.035156 -7.332031 0.9375 -7.765625 0.9375 -8.265625 C 0.9375 -8.722656 1.046875 -9.15625 1.265625 -9.5625 C 1.492188 -9.96875 1.796875 -10.328125 2.171875 -10.640625 C 2.546875 -10.953125 2.984375 -11.195312 3.484375 -11.375 C 3.984375 -11.5625 4.515625 -11.65625 5.078125 -11.65625 C 5.566406 -11.65625 6.035156 -11.582031 6.484375 -11.4375 C 6.929688 -11.300781 7.332031 -11.109375 7.6875 -10.859375 C 8.050781 -10.609375 8.351562 -10.304688 8.59375 -9.953125 C 8.84375 -9.609375 9.007812 -9.21875 9.09375 -8.78125 L 7.015625 -8.28125 C 6.921875 -8.664062 6.710938 -8.984375 6.390625 -9.234375 C 6.066406 -9.492188 5.628906 -9.625 5.078125 -9.625 C 4.878906 -9.625 4.675781 -9.59375 4.46875 -9.53125 C 4.269531 -9.476562 4.082031 -9.394531 3.90625 -9.28125 C 3.726562 -9.175781 3.578125 -9.039062 3.453125 -8.875 C 3.335938 -8.71875 3.28125 -8.535156 3.28125 -8.328125 C 3.28125 -8.109375 3.347656 -7.914062 3.484375 -7.75 C 3.617188 -7.59375 3.78125 -7.460938 3.96875 -7.359375 C 4.164062 -7.253906 4.375 -7.171875 4.59375 -7.109375 C 4.820312 -7.046875 5.03125 -6.988281 5.21875 -6.9375 C 6.0625 -6.726562 6.757812 -6.503906 7.3125 -6.265625 C 7.875 -6.023438 8.320312 -5.757812 8.65625 -5.46875 C 9 -5.1875 9.238281 -4.875 9.375 -4.53125 C 9.507812 -4.1875 9.578125 -3.800781 9.578125 -3.375 C 9.578125 -2.863281 9.457031 -2.382812 9.21875 -1.9375 C 8.988281 -1.488281 8.671875 -1.097656 8.265625 -0.765625 C 7.859375 -0.441406 7.367188 -0.1875 6.796875 0 C 6.234375 0.175781 5.628906 0.265625 4.984375 0.265625 C 3.992188 0.265625 3.109375 0.0195312 2.328125 -0.46875 C 1.554688 -0.957031 1.035156 -1.609375 0.765625 -2.421875 L 2.734375 -3.296875 C 2.984375 -2.742188 3.304688 -2.363281 3.703125 -2.15625 C 4.109375 -1.957031 4.566406 -1.859375 5.078125 -1.859375 C 5.710938 -1.859375 6.242188 -2.035156 6.671875 -2.390625 Z M 6.671875 -2.390625 "/></g></g></g><g fill="#000000" fill-opacity="1"><g transform="translate(301.397816, 420.187252)"><g><path d="M 3.765625 0 L 1.4375 0 L 1.4375 -11.46875 L 3.734375 -11.46875 Z M 2.578125 -13.953125 C 2.171875 -13.953125 1.820312 -14.097656 1.53125 -14.390625 C 1.238281 -14.691406 1.09375 -15.050781 1.09375 -15.46875 C 1.09375 -15.882812 1.238281 -16.234375 1.53125 -16.515625 C 1.820312 -16.804688 2.171875 -16.953125 2.578125 -16.953125 C 2.992188 -16.953125 3.34375 -16.804688 3.625 -16.515625 C 3.914062 -16.234375 4.0625 -15.882812 4.0625 -15.46875 C 4.0625 -15.050781 3.914062 -14.691406 3.625 -14.390625 C 3.34375 -14.097656 2.992188 -13.953125 2.578125 -13.953125 Z M 2.578125 -13.953125 "/></g></g></g><g fill="#000000" fill-opacity="1"><g transform="translate(314.015965, 420.187252)"><g><path d="M 7.5625 -0.03125 C 6.90625 0.195312 6.257812 0.332031 5.625 0.375 C 4.988281 0.425781 4.414062 0.335938 3.90625 0.109375 C 3.394531 -0.117188 2.976562 -0.523438 2.65625 -1.109375 C 2.332031 -1.691406 2.171875 -2.507812 2.171875 -3.5625 L 2.171875 -9.390625 L 0.5 -9.390625 L 0.5 -10.984375 L 2.171875 -11.46875 L 2.171875 -14.53125 L 4.5 -14.53125 L 4.5 -11.46875 L 7.609375 -11.46875 L 7.609375 -9.390625 L 4.5 -9.390625 L 4.5 -3.203125 C 4.5 -2.828125 4.539062 -2.523438 4.625 -2.296875 C 4.71875 -2.078125 4.867188 -1.910156 5.078125 -1.796875 C 5.285156 -1.679688 5.554688 -1.625 5.890625 -1.625 C 6.222656 -1.625 6.628906 -1.65625 7.109375 -1.71875 Z M 7.5625 -0.03125 "/></g></g></g><g fill="#000000" fill-opacity="1"><g transform="translate(329.793553, 420.187252)"><g><path d="M 5.09375 -1.296875 L 0.234375 -11.46875 L 2.828125 -11.46875 L 6.375 -4.015625 L 9.84375 -11.46875 L 12.40625 -11.46875 L 5 4.578125 L 2.4375 4.578125 Z M 5.09375 -1.296875 "/></g></g></g><g fill="#000000" fill-opacity="1"><g transform="translate(350.19065, 420.187252)"><g/></g></g><g fill="#000000" fill-opacity="1"><g transform="translate(364.029509, 420.187252)"><g><path d="M 6.375 0.28125 C 5.570312 0.28125 4.820312 0.128906 4.125 -0.171875 C 3.4375 -0.484375 2.832031 -0.910156 2.3125 -1.453125 C 1.789062 -2.003906 1.378906 -2.644531 1.078125 -3.375 C 0.773438 -4.101562 0.625 -4.882812 0.625 -5.71875 C 0.625 -6.550781 0.773438 -7.332031 1.078125 -8.0625 C 1.378906 -8.800781 1.789062 -9.441406 2.3125 -9.984375 C 2.832031 -10.523438 3.4375 -10.953125 4.125 -11.265625 C 4.820312 -11.578125 5.570312 -11.734375 6.375 -11.734375 C 7.15625 -11.734375 7.894531 -11.578125 8.59375 -11.265625 C 9.289062 -10.953125 9.898438 -10.523438 10.421875 -9.984375 C 10.941406 -9.441406 11.351562 -8.800781 11.65625 -8.0625 C 11.957031 -7.332031 12.109375 -6.550781 12.109375 -5.71875 C 12.109375 -4.882812 11.957031 -4.101562 11.65625 -3.375 C 11.351562 -2.644531 10.941406 -2.003906 10.421875 -1.453125 C 9.898438 -0.910156 9.289062 -0.484375 8.59375 -0.171875 C 7.894531 0.128906 7.15625 0.28125 6.375 0.28125 Z M 6.375 -9.640625 C 5.90625 -9.640625 5.460938 -9.535156 5.046875 -9.328125 C 4.628906 -9.128906 4.265625 -8.851562 3.953125 -8.5 C 3.648438 -8.144531 3.410156 -7.726562 3.234375 -7.25 C 3.054688 -6.769531 2.96875 -6.257812 2.96875 -5.71875 C 2.96875 -5.175781 3.054688 -4.664062 3.234375 -4.1875 C 3.410156 -3.707031 3.648438 -3.285156 3.953125 -2.921875 C 4.265625 -2.566406 4.628906 -2.285156 5.046875 -2.078125 C 5.460938 -1.867188 5.90625 -1.765625 6.375 -1.765625 C 6.832031 -1.765625 7.269531 -1.867188 7.6875 -2.078125 C 8.101562 -2.285156 8.460938 -2.566406 8.765625 -2.921875 C 9.066406 -3.285156 9.304688 -3.707031 9.484375 -4.1875 C 9.660156 -4.664062 9.75 -5.175781 9.75 -5.71875 C 9.75 -6.257812 9.660156 -6.769531 9.484375 -7.25 C 9.304688 -7.726562 9.066406 -8.144531 8.765625 -8.5 C 8.460938 -8.851562 8.101562 -9.128906 7.6875 -9.328125 C 7.269531 -9.535156 6.832031 -9.640625 6.375 -9.640625 Z M 6.375 -9.640625 "/></g></g></g><g fill="#000000" fill-opacity="1"><g transform="translate(384.259058, 420.187252)"><g><path d="M 2.984375 0 L 2.984375 -9.390625 L 1.03125 -9.390625 L 1.03125 -10.984375 L 2.984375 -11.46875 L 2.984375 -12.859375 C 2.984375 -13.671875 3.085938 -14.375 3.296875 -14.96875 C 3.503906 -15.570312 3.785156 -16.0625 4.140625 -16.4375 C 4.503906 -16.820312 4.914062 -17.101562 5.375 -17.28125 C 5.84375 -17.46875 6.34375 -17.5625 6.875 -17.5625 C 7.519531 -17.5625 8.179688 -17.425781 8.859375 -17.15625 L 8.859375 -15.46875 C 8.285156 -15.644531 7.789062 -15.734375 7.375 -15.734375 C 6.71875 -15.734375 6.207031 -15.53125 5.84375 -15.125 C 5.488281 -14.726562 5.3125 -14.09375 5.3125 -13.21875 L 5.3125 -11.46875 L 8.859375 -11.46875 L 8.859375 -9.390625 L 5.3125 -9.390625 L 5.3125 0 Z M 2.984375 0 "/></g></g></g><g fill="#000000" fill-opacity="1"><g transform="translate(400.946202, 420.187252)"><g/></g></g><g fill="#000000" fill-opacity="1"><g transform="translate(414.785062, 420.187252)"><g><path d="M 9.328125 -2.078125 C 10.253906 -2.078125 11.113281 -2.300781 11.90625 -2.75 C 12.695312 -3.195312 13.363281 -3.789062 13.90625 -4.53125 L 15.65625 -2.84375 C 14.882812 -1.9375 13.953125 -1.195312 12.859375 -0.625 C 11.773438 -0.0507812 10.597656 0.234375 9.328125 0.234375 C 8.179688 0.234375 7.097656 0.00390625 6.078125 -0.453125 C 5.054688 -0.921875 4.171875 -1.546875 3.421875 -2.328125 C 2.671875 -3.117188 2.078125 -4.046875 1.640625 -5.109375 C 1.203125 -6.171875 0.984375 -7.289062 0.984375 -8.46875 C 0.984375 -9.664062 1.203125 -10.789062 1.640625 -11.84375 C 2.078125 -12.894531 2.671875 -13.816406 3.421875 -14.609375 C 4.171875 -15.398438 5.054688 -16.023438 6.078125 -16.484375 C 7.097656 -16.953125 8.179688 -17.1875 9.328125 -17.1875 C 10.398438 -17.1875 11.410156 -16.972656 12.359375 -16.546875 C 13.304688 -16.128906 14.15625 -15.578125 14.90625 -14.890625 L 13.421875 -13 C 12.898438 -13.550781 12.285156 -14.003906 11.578125 -14.359375 C 10.878906 -14.722656 10.128906 -14.90625 9.328125 -14.90625 C 8.515625 -14.90625 7.753906 -14.734375 7.046875 -14.390625 C 6.335938 -14.054688 5.71875 -13.59375 5.1875 -13 C 4.664062 -12.40625 4.25 -11.722656 3.9375 -10.953125 C 3.625 -10.179688 3.46875 -9.351562 3.46875 -8.46875 C 3.46875 -7.59375 3.625 -6.765625 3.9375 -5.984375 C 4.25 -5.210938 4.664062 -4.535156 5.1875 -3.953125 C 5.71875 -3.378906 6.335938 -2.921875 7.046875 -2.578125 C 7.753906 -2.242188 8.515625 -2.078125 9.328125 -2.078125 Z M 9.328125 -2.078125 "/></g></g></g><g fill="#000000" fill-opacity="1"><g transform="translate(438.796354, 420.187252)"><g><path d="M 3.65625 0 L 1.34375 0 L 1.34375 -17.46875 L 3.65625 -17.46875 L 3.65625 -10.40625 C 4.09375 -10.882812 4.546875 -11.222656 5.015625 -11.421875 C 5.484375 -11.628906 6.03125 -11.734375 6.65625 -11.734375 C 7.445312 -11.734375 8.160156 -11.578125 8.796875 -11.265625 C 9.429688 -10.953125 9.96875 -10.523438 10.40625 -9.984375 C 10.851562 -9.441406 11.191406 -8.800781 11.421875 -8.0625 C 11.660156 -7.332031 11.78125 -6.550781 11.78125 -5.71875 L 11.78125 0 L 9.4375 0 L 9.4375 -5.71875 C 9.4375 -6.257812 9.359375 -6.769531 9.203125 -7.25 C 9.046875 -7.726562 8.835938 -8.144531 8.578125 -8.5 C 8.316406 -8.851562 8.015625 -9.128906 7.671875 -9.328125 C 7.328125 -9.523438 6.957031 -9.625 6.5625 -9.625 C 6.226562 -9.625 5.890625 -9.554688 5.546875 -9.421875 C 5.210938 -9.285156 4.90625 -9.066406 4.625 -8.765625 C 4.351562 -8.460938 4.125 -8.0625 3.9375 -7.5625 C 3.75 -7.070312 3.65625 -6.472656 3.65625 -5.765625 Z M 3.65625 0 "/></g></g></g><g fill="#000000" fill-opacity="1"><g transform="translate(459.360977, 420.187252)"><g><path d="M 3.765625 0 L 1.4375 0 L 1.4375 -11.46875 L 3.734375 -11.46875 Z M 2.578125 -13.953125 C 2.171875 -13.953125 1.820312 -14.097656 1.53125 -14.390625 C 1.238281 -14.691406 1.09375 -15.050781 1.09375 -15.46875 C 1.09375 -15.882812 1.238281 -16.234375 1.53125 -16.515625 C 1.820312 -16.804688 2.171875 -16.953125 2.578125 -16.953125 C 2.992188 -16.953125 3.34375 -16.804688 3.625 -16.515625 C 3.914062 -16.234375 4.0625 -15.882812 4.0625 -15.46875 C 4.0625 -15.050781 3.914062 -14.691406 3.625 -14.390625 C 3.34375 -14.097656 2.992188 -13.953125 2.578125 -13.953125 Z M 2.578125 -13.953125 "/></g></g></g><g fill="#000000" fill-opacity="1"><g transform="translate(471.979126, 420.187252)"><g><path d="M 6.609375 0.28125 C 5.804688 0.28125 5.054688 0.128906 4.359375 -0.171875 C 3.671875 -0.484375 3.066406 -0.910156 2.546875 -1.453125 C 2.023438 -2.003906 1.613281 -2.644531 1.3125 -3.375 C 1.007812 -4.101562 0.859375 -4.882812 0.859375 -5.71875 C 0.859375 -6.550781 1.007812 -7.332031 1.3125 -8.0625 C 1.613281 -8.800781 2.023438 -9.441406 2.546875 -9.984375 C 3.066406 -10.523438 3.671875 -10.953125 4.359375 -11.265625 C 5.054688 -11.578125 5.804688 -11.734375 6.609375 -11.734375 C 7.535156 -11.734375 8.390625 -11.523438 9.171875 -11.109375 C 9.953125 -10.691406 10.601562 -10.125 11.125 -9.40625 L 9.5 -8.140625 C 9.1875 -8.597656 8.785156 -8.957031 8.296875 -9.21875 C 7.804688 -9.488281 7.28125 -9.625 6.71875 -9.625 C 6.25 -9.625 5.796875 -9.523438 5.359375 -9.328125 C 4.929688 -9.128906 4.554688 -8.851562 4.234375 -8.5 C 3.921875 -8.144531 3.671875 -7.726562 3.484375 -7.25 C 3.296875 -6.769531 3.203125 -6.257812 3.203125 -5.71875 C 3.203125 -5.175781 3.296875 -4.664062 3.484375 -4.1875 C 3.671875 -3.707031 3.921875 -3.285156 4.234375 -2.921875 C 4.554688 -2.566406 4.929688 -2.285156 5.359375 -2.078125 C 5.796875 -1.867188 6.25 -1.765625 6.71875 -1.765625 C 7.34375 -1.765625 7.910156 -1.929688 8.421875 -2.265625 C 8.929688 -2.609375 9.347656 -3.054688 9.671875 -3.609375 L 11.25 -2.21875 C 10.738281 -1.457031 10.078125 -0.847656 9.265625 -0.390625 C 8.453125 0.0546875 7.566406 0.28125 6.609375 0.28125 Z M 6.609375 0.28125 "/></g></g></g><g fill="#000000" fill-opacity="1"><g transform="translate(491.729974, 420.187252)"><g><path d="M 12.203125 -11.46875 L 12.203125 0 L 10.25 0 L 9.890625 -1.3125 C 9.484375 -0.789062 8.96875 -0.394531 8.34375 -0.125 C 7.726562 0.144531 7.101562 0.28125 6.46875 0.28125 C 5.664062 0.28125 4.914062 0.128906 4.21875 -0.171875 C 3.53125 -0.484375 2.925781 -0.910156 2.40625 -1.453125 C 1.882812 -2.003906 1.472656 -2.644531 1.171875 -3.375 C 0.867188 -4.101562 0.71875 -4.882812 0.71875 -5.71875 C 0.71875 -6.550781 0.867188 -7.332031 1.171875 -8.0625 C 1.472656 -8.800781 1.882812 -9.441406 2.40625 -9.984375 C 2.925781 -10.523438 3.53125 -10.953125 4.21875 -11.265625 C 4.914062 -11.578125 5.664062 -11.734375 6.46875 -11.734375 C 7.101562 -11.734375 7.710938 -11.609375 8.296875 -11.359375 C 8.890625 -11.109375 9.421875 -10.722656 9.890625 -10.203125 L 10.25 -11.46875 Z M 6.46875 -1.765625 C 6.925781 -1.765625 7.363281 -1.867188 7.78125 -2.078125 C 8.195312 -2.285156 8.554688 -2.566406 8.859375 -2.921875 C 9.160156 -3.285156 9.398438 -3.707031 9.578125 -4.1875 C 9.753906 -4.664062 9.84375 -5.175781 9.84375 -5.71875 C 9.84375 -6.257812 9.753906 -6.769531 9.578125 -7.25 C 9.398438 -7.726562 9.160156 -8.144531 8.859375 -8.5 C 8.554688 -8.863281 8.195312 -9.148438 7.78125 -9.359375 C 7.363281 -9.566406 6.925781 -9.671875 6.46875 -9.671875 C 6 -9.671875 5.554688 -9.566406 5.140625 -9.359375 C 4.734375 -9.148438 4.375 -8.863281 4.0625 -8.5 C 3.757812 -8.144531 3.519531 -7.726562 3.34375 -7.25 C 3.175781 -6.769531 3.09375 -6.257812 3.09375 -5.71875 C 3.09375 -5.175781 3.175781 -4.664062 3.34375 -4.1875 C 3.519531 -3.707031 3.757812 -3.285156 4.0625 -2.921875 C 4.375 -2.566406 4.734375 -2.285156 5.140625 -2.078125 C 5.554688 -1.867188 6 -1.765625 6.46875 -1.765625 Z M 6.46875 -1.765625 "/></g></g></g><g fill="#000000" fill-opacity="1"><g transform="translate(512.557905, 420.187252)"><g><path d="M 6.5625 -0.578125 C 5.757812 -0.578125 5.019531 -0.722656 4.34375 -1.015625 C 3.675781 -1.304688 3.09375 -1.710938 2.59375 -2.234375 C 2.101562 -2.753906 1.71875 -3.351562 1.4375 -4.03125 C 1.164062 -4.707031 1.03125 -5.429688 1.03125 -6.203125 C 1.03125 -6.960938 1.164062 -7.675781 1.4375 -8.34375 C 1.71875 -9.019531 2.101562 -9.609375 2.59375 -10.109375 C 3.09375 -10.617188 3.675781 -11.015625 4.34375 -11.296875 C 5.019531 -11.585938 5.757812 -11.734375 6.5625 -11.734375 C 7.351562 -11.734375 8.046875 -11.613281 8.640625 -11.375 C 9.234375 -11.132812 9.753906 -10.789062 10.203125 -10.34375 L 10.671875 -11.46875 L 12.5 -11.46875 C 12.5 -11.414062 12.5 -11.351562 12.5 -11.28125 C 12.5 -11.207031 12.5 -11.066406 12.5 -10.859375 C 12.5 -10.660156 12.5 -10.367188 12.5 -9.984375 C 12.5 -9.597656 12.5 -9.066406 12.5 -8.390625 C 12.5 -7.722656 12.5 -6.882812 12.5 -5.875 C 12.507812 -4.875 12.515625 -3.65625 12.515625 -2.21875 C 12.515625 -1.75 12.5 -1.285156 12.46875 -0.828125 C 12.4375 -0.367188 12.367188 0.0664062 12.265625 0.484375 C 12.160156 0.910156 12.007812 1.316406 11.8125 1.703125 C 11.613281 2.097656 11.347656 2.476562 11.015625 2.84375 C 10.367188 3.519531 9.644531 3.972656 8.84375 4.203125 C 8.039062 4.429688 7.191406 4.546875 6.296875 4.546875 C 5.523438 4.546875 4.800781 4.445312 4.125 4.25 C 3.445312 4.0625 2.835938 3.8125 2.296875 3.5 L 2.296875 0.90625 C 2.617188 1.375 3.117188 1.75 3.796875 2.03125 C 4.472656 2.320312 5.242188 2.46875 6.109375 2.46875 C 6.679688 2.46875 7.210938 2.390625 7.703125 2.234375 C 8.203125 2.085938 8.632812 1.859375 9 1.546875 C 9.363281 1.234375 9.65625 0.828125 9.875 0.328125 C 10.09375 -0.160156 10.203125 -0.75 10.203125 -1.4375 L 10.203125 -1.890625 C 10.003906 -1.710938 9.765625 -1.546875 9.484375 -1.390625 C 9.210938 -1.234375 8.910156 -1.09375 8.578125 -0.96875 C 8.253906 -0.851562 7.914062 -0.757812 7.5625 -0.6875 C 7.207031 -0.613281 6.875 -0.578125 6.5625 -0.578125 Z M 6.78125 -9.625 C 6.3125 -9.625 5.867188 -9.535156 5.453125 -9.359375 C 5.035156 -9.179688 4.671875 -8.9375 4.359375 -8.625 C 4.054688 -8.3125 3.816406 -7.945312 3.640625 -7.53125 C 3.460938 -7.125 3.375 -6.679688 3.375 -6.203125 C 3.375 -5.722656 3.460938 -5.269531 3.640625 -4.84375 C 3.816406 -4.425781 4.054688 -4.0625 4.359375 -3.75 C 4.671875 -3.4375 5.035156 -3.1875 5.453125 -3 C 5.867188 -2.820312 6.3125 -2.734375 6.78125 -2.734375 C 7.238281 -2.734375 7.675781 -2.800781 8.09375 -2.9375 C 8.507812 -3.082031 8.867188 -3.296875 9.171875 -3.578125 C 9.472656 -3.867188 9.710938 -4.226562 9.890625 -4.65625 C 10.066406 -5.09375 10.15625 -5.609375 10.15625 -6.203125 C 10.15625 -6.828125 10.066406 -7.359375 9.890625 -7.796875 C 9.710938 -8.234375 9.472656 -8.585938 9.171875 -8.859375 C 8.867188 -9.128906 8.507812 -9.320312 8.09375 -9.4375 C 7.675781 -9.5625 7.238281 -9.625 6.78125 -9.625 Z M 6.78125 -9.625 "/></g></g></g><g fill="#000000" fill-opacity="1"><g transform="translate(534.295348, 420.187252)"><g><path d="M 6.375 0.28125 C 5.570312 0.28125 4.820312 0.128906 4.125 -0.171875 C 3.4375 -0.484375 2.832031 -0.910156 2.3125 -1.453125 C 1.789062 -2.003906 1.378906 -2.644531 1.078125 -3.375 C 0.773438 -4.101562 0.625 -4.882812 0.625 -5.71875 C 0.625 -6.550781 0.773438 -7.332031 1.078125 -8.0625 C 1.378906 -8.800781 1.789062 -9.441406 2.3125 -9.984375 C 2.832031 -10.523438 3.4375 -10.953125 4.125 -11.265625 C 4.820312 -11.578125 5.570312 -11.734375 6.375 -11.734375 C 7.15625 -11.734375 7.894531 -11.578125 8.59375 -11.265625 C 9.289062 -10.953125 9.898438 -10.523438 10.421875 -9.984375 C 10.941406 -9.441406 11.351562 -8.800781 11.65625 -8.0625 C 11.957031 -7.332031 12.109375 -6.550781 12.109375 -5.71875 C 12.109375 -4.882812 11.957031 -4.101562 11.65625 -3.375 C 11.351562 -2.644531 10.941406 -2.003906 10.421875 -1.453125 C 9.898438 -0.910156 9.289062 -0.484375 8.59375 -0.171875 C 7.894531 0.128906 7.15625 0.28125 6.375 0.28125 Z M 6.375 -9.640625 C 5.90625 -9.640625 5.460938 -9.535156 5.046875 -9.328125 C 4.628906 -9.128906 4.265625 -8.851562 3.953125 -8.5 C 3.648438 -8.144531 3.410156 -7.726562 3.234375 -7.25 C 3.054688 -6.769531 2.96875 -6.257812 2.96875 -5.71875 C 2.96875 -5.175781 3.054688 -4.664062 3.234375 -4.1875 C 3.410156 -3.707031 3.648438 -3.285156 3.953125 -2.921875 C 4.265625 -2.566406 4.628906 -2.285156 5.046875 -2.078125 C 5.460938 -1.867188 5.90625 -1.765625 6.375 -1.765625 C 6.832031 -1.765625 7.269531 -1.867188 7.6875 -2.078125 C 8.101562 -2.285156 8.460938 -2.566406 8.765625 -2.921875 C 9.066406 -3.285156 9.304688 -3.707031 9.484375 -4.1875 C 9.660156 -4.664062 9.75 -5.175781 9.75 -5.71875 C 9.75 -6.257812 9.660156 -6.769531 9.484375 -7.25 C 9.304688 -7.726562 9.066406 -8.144531 8.765625 -8.5 C 8.460938 -8.851562 8.101562 -9.128906 7.6875 -9.328125 C 7.269531 -9.535156 6.832031 -9.640625 6.375 -9.640625 Z M 6.375 -9.640625 "/></g></g></g></svg>